<svg width="292" height="377" viewBox="0 0 292 377" fill="none" xmlns="http://www.w3.org/2000/svg">
<path d="M108.31 240.15L116.736 278.775L148.416 242.853L161.32 254.222C161.32 254.222 116.44 320.812 98.5288 316.46C80.6178 312.109 85.4956 286.848 81.6889 259.694C77.8822 232.54 108.31 240.15 108.31 240.15Z" fill="white"/>
<path d="M100.258 317.31C99.6235 317.311 98.9911 317.238 98.3739 317.091C84.7342 313.77 83.8954 299.066 82.8889 280.449C82.5147 273.792 82.1146 266.917 81.121 259.784C80.05 252.149 81.534 246.459 85.5471 242.866C93.4058 235.837 107.923 239.364 108.529 239.519C108.645 239.551 108.75 239.614 108.834 239.7C108.918 239.785 108.977 239.892 109.007 240.008L117.162 277.346L147.99 242.377C148.106 242.247 148.268 242.169 148.442 242.158C148.611 242.149 148.777 242.205 148.906 242.313L161.811 253.694C161.928 253.797 162.004 253.939 162.023 254.093C162.042 254.248 162.003 254.404 161.914 254.531C160.03 257.222 119.317 317.297 100.258 317.31ZM99.5094 239.815C95.0833 239.815 89.8958 240.639 86.3472 243.832C82.7986 247.025 81.3275 252.433 82.334 259.604C83.3405 266.775 83.7277 273.689 84.1148 280.372C85.1471 298.461 85.973 312.74 98.6707 315.843C105.729 317.542 118.672 307.435 136.093 286.565C148.119 272.157 158.494 257.132 160.417 254.377L148.455 243.793L117.214 279.239C117.136 279.329 117.035 279.396 116.921 279.433C116.807 279.469 116.685 279.473 116.569 279.445C116.452 279.415 116.345 279.353 116.261 279.267C116.177 279.18 116.118 279.073 116.091 278.955L107.755 240.742C105.046 240.151 102.283 239.84 99.5094 239.815Z" fill="#231F20"/>
<path d="M4.96095 354.159C2.38013 371.566 2.78015 376.356 2.78015 376.356L109.781 374.218L95.7028 313.203L13.6583 321.971C9.61368 332.359 6.69787 343.15 4.96095 354.159Z" fill="#231F20"/>
<path d="M2.78007 377C2.61873 377.003 2.46204 376.946 2.34208 376.838C2.22213 376.73 2.14799 376.581 2.13486 376.42C2.13486 376.214 1.72193 371.347 4.31566 354.069C6.07145 343.009 9.00436 332.167 13.0647 321.727C13.1095 321.619 13.1822 321.526 13.2751 321.456C13.3681 321.386 13.478 321.341 13.5937 321.328L95.6253 312.56C95.7817 312.54 95.9398 312.579 96.0687 312.67C96.1976 312.76 96.288 312.895 96.3221 313.049L110.413 374.077C110.435 374.171 110.434 374.269 110.412 374.362C110.389 374.456 110.346 374.543 110.284 374.618C110.228 374.694 110.154 374.756 110.068 374.798C109.983 374.841 109.889 374.863 109.794 374.862L2.79298 377H2.78007ZM5.59317 354.262C3.51561 368.09 3.37366 373.961 3.39947 375.699L108.968 373.601L95.1994 313.899L14.1228 322.564C10.1815 332.805 7.32276 343.429 5.59317 354.262Z" fill="#231F20"/>
<path d="M3.83823 347.633L104.168 336.367C94.8253 276.871 90.0636 308.325 101.355 252.679L113.252 249.46C107.729 220.71 94.1542 208.092 94.1542 208.092C80.9017 184.286 48.5898 198.217 48.5898 198.217C48.5898 198.217 11.5291 201.178 1.96713 233.134C-4.3688 254.275 6.50938 283.759 7.86432 309.497C8.23854 316.694 5.74804 316.398 3.83823 347.633Z" fill="#8C8896"/>
<path d="M76.2304 213.474C72.5011 212.907 68.9137 212.276 65.0554 213.306C59.326 214.864 54.2805 218.173 48.3833 219.551C42.0861 221.006 35.2211 221.057 28.7819 221.353C26.8979 221.443 28.9367 223.825 27.3108 222.86C21.5943 219.461 21.1426 211.723 20.6136 205.916C19.209 192.5 19.6432 178.955 21.904 165.655C24.0719 154.068 26.3172 143.085 37.5825 137.163C45.7895 132.85 57.3258 130.275 66.32 133.468C75.3142 136.661 82.8244 144.862 85.9601 153.939C89.4313 163.982 90.5669 174.166 96.3995 183.359C98.9804 187.414 102.168 191.367 102.852 196.118C103.6 201.847 100.193 207.615 95.3027 210.706C90.412 213.796 84.3084 214.568 78.5273 213.796C77.7273 213.705 76.9788 213.59 76.2304 213.474Z" fill="white"/>
<path d="M27.8529 223.733C27.5383 223.7 27.2369 223.589 26.9754 223.411C21.2072 219.987 20.5233 212.609 20.033 206.674V205.966C18.6651 190.734 19.091 177.512 21.3234 165.525C23.4138 154.336 25.5817 142.762 37.3374 136.582C44.7315 132.719 56.8355 129.384 66.5911 132.848C75.6239 136.054 83.2761 144.049 86.6183 153.718C87.7538 156.989 88.6442 160.31 89.5088 163.529C91.367 170.392 93.109 176.868 96.9932 182.996C97.4577 183.743 97.9481 184.477 98.4385 185.211C100.658 188.546 102.955 191.996 103.471 196.026C104.219 201.691 101.071 207.807 95.6383 211.231C89.8314 214.901 83.0954 214.991 78.4758 214.425L76.1659 214.09L75.611 214.013C72.114 213.472 68.7977 212.97 65.2877 213.922C62.6359 214.708 60.0476 215.694 57.5453 216.871C54.6432 218.243 51.6191 219.342 48.5124 220.154C43.0245 221.237 37.4472 221.806 31.8531 221.853L28.782 221.982C28.7014 221.963 28.6174 221.963 28.5368 221.982C28.5141 222.132 28.5141 222.283 28.5368 222.433C28.6013 222.627 28.6063 222.836 28.5511 223.034C28.496 223.231 28.3832 223.407 28.2271 223.54C28.1222 223.637 27.9929 223.704 27.8529 223.733ZM57.442 132.706C50.6223 132.86 43.931 134.588 37.8923 137.753C26.6915 143.637 24.5881 154.89 22.5493 165.782C20.3297 177.653 19.9684 190.76 21.2588 205.875L21.3234 206.584C21.8137 212.081 22.4073 218.892 27.2722 222.034C27.272 221.725 27.3766 221.426 27.569 221.184C27.7173 221.017 27.9005 220.885 28.1055 220.796C28.3106 220.707 28.5326 220.663 28.7561 220.669L31.8273 220.54C37.3357 220.526 42.8308 220 48.2414 218.969C51.2519 218.171 54.181 217.093 56.9904 215.751C59.545 214.554 62.1846 213.547 64.8877 212.738C68.6815 211.721 72.1269 212.249 75.7659 212.738L76.3208 212.828C77.0692 212.931 77.8176 213.047 78.579 213.137C83.0051 213.691 89.4185 213.613 94.9027 210.137C99.9095 206.983 102.826 201.369 102.142 196.193C101.652 192.46 99.445 189.138 97.3158 185.893C96.8254 185.146 96.3222 184.4 95.8447 183.653C91.8573 177.357 90.012 170.469 88.2184 163.825C87.3538 160.632 86.4634 157.388 85.3537 154.092C82.1276 144.783 74.7594 137.097 66.1007 134.019C63.3095 133.097 60.3819 132.653 57.442 132.706Z" fill="#231F20"/>
<path d="M80.5791 159.976C80.5791 159.976 87.2376 175.426 85.2504 187.529C84.782 190.92 83.3325 194.101 81.0795 196.683C78.8265 199.265 75.8677 201.135 72.5656 202.065L73.856 223.27C73.856 223.27 74.6432 234.111 61.21 233.274C57.3231 233.024 53.5642 231.79 50.2881 229.688C47.012 227.587 44.3268 224.686 42.4861 221.262L38.4987 182.366C38.4987 182.366 53.0417 172.748 50.848 158.83C50.9383 158.83 69.4299 166.362 80.5791 159.976Z" fill="white"/>
<path d="M62.7456 233.958H61.2616C57.2617 233.679 53.3978 232.394 50.0292 230.224C46.6607 228.054 43.8972 225.069 41.9957 221.547C41.9844 221.474 41.9844 221.4 41.9957 221.328L38.0084 182.432C38.0011 182.314 38.0247 182.196 38.0767 182.09C38.1287 181.984 38.2074 181.893 38.3051 181.827C38.4342 181.737 52.4997 172.273 50.3576 158.935C50.3432 158.822 50.3584 158.707 50.4018 158.602C50.4451 158.497 50.5151 158.405 50.6049 158.335C50.6946 158.265 50.8011 158.219 50.9138 158.202C51.0266 158.186 51.1417 158.199 51.248 158.24C51.4287 158.24 69.5719 165.566 80.321 159.411C80.4048 159.376 80.4947 159.358 80.5856 159.358C80.6764 159.358 80.7663 159.376 80.8501 159.411C81.0209 159.477 81.1596 159.606 81.2372 159.772C81.5082 160.403 87.9474 175.492 85.9472 187.685C85.4606 191.1 84.0201 194.31 81.7905 196.947C79.5609 199.584 76.6323 201.541 73.3399 202.594L74.6303 223.285C74.6831 224.674 74.4607 226.06 73.9758 227.364C73.4908 228.667 72.7529 229.862 71.8043 230.881C69.7009 232.915 66.6684 233.958 62.7456 233.958ZM43.2087 221.083C45.016 224.378 47.6251 227.166 50.7956 229.191C53.9662 231.216 57.5964 232.413 61.3519 232.671C65.5974 232.941 68.7847 232.027 70.8365 229.98C72.486 228.17 73.3693 225.794 73.3012 223.349L72.0108 202.144C72.0035 201.991 72.0498 201.841 72.1416 201.719C72.2335 201.596 72.3652 201.51 72.514 201.474C75.6999 200.595 78.5545 198.797 80.7195 196.304C82.8844 193.812 84.2631 190.737 84.6826 187.466C86.386 177.037 81.534 163.969 80.321 160.918C70.3977 166.068 55.8032 161.317 51.7771 159.862C53.0675 172.273 41.4538 181.196 39.3375 182.715L43.2087 221.083Z" fill="#231F20"/>
<path d="M73.3915 188.7C72.3054 188.692 71.222 188.593 70.1525 188.404C70.0695 188.387 69.9906 188.354 69.9204 188.307C69.8501 188.26 69.7899 188.199 69.7432 188.128C69.6965 188.058 69.6641 187.979 69.648 187.896C69.6319 187.813 69.6323 187.727 69.6493 187.644C69.6646 187.561 69.6967 187.481 69.7437 187.41C69.7906 187.339 69.8515 187.278 69.9226 187.231C69.9938 187.185 70.0737 187.152 70.1575 187.137C70.2414 187.122 70.3275 187.124 70.4106 187.142C70.4106 187.142 74.7077 187.966 76.7337 186.756C77.0434 185.082 72.9786 179.52 70.0106 176.083C69.8977 175.953 69.841 175.784 69.8531 175.612C69.8652 175.441 69.9451 175.281 70.0751 175.169C70.2052 175.056 70.3748 174.999 70.5466 175.011C70.7184 175.023 70.8784 175.103 70.9913 175.233C72.2817 176.701 78.5015 184.13 78.0628 186.82C78.038 187.029 77.9658 187.229 77.8517 187.405C77.7377 187.581 77.5848 187.729 77.4047 187.838C76.1645 188.467 74.7815 188.765 73.3915 188.7Z" fill="#231F20"/>
<path d="M68.6944 195.628C67.9112 195.629 67.1296 195.56 66.3587 195.422C62.7016 194.774 59.3996 192.837 57.0549 189.963C56.9774 189.812 56.9623 189.638 57.0131 189.476C57.0638 189.315 57.1761 189.18 57.3258 189.1C57.477 189.021 57.653 189.004 57.8167 189.052C57.9804 189.1 58.1191 189.21 58.2033 189.358C60.3752 191.893 63.3634 193.595 66.6555 194.173C71.0171 194.881 75.3529 193.285 79.5597 189.422C79.6201 189.358 79.6932 189.306 79.7744 189.271C79.8555 189.236 79.9431 189.218 80.0315 189.218C80.12 189.218 80.2075 189.237 80.2886 189.272C80.3696 189.307 80.4426 189.359 80.5029 189.423C80.5632 189.488 80.6095 189.564 80.639 189.647C80.6685 189.73 80.6806 189.819 80.6744 189.907C80.6683 189.995 80.644 190.081 80.6032 190.159C80.5624 190.237 80.5059 190.306 80.4372 190.362C76.6175 193.864 72.6947 195.628 68.6944 195.628Z" fill="#231F20"/>
<path d="M72.5657 202.064C72.5657 202.064 61.3133 204.215 54.6805 202.966C54.6805 202.966 62.8618 219.214 73.6496 218.416L72.5657 202.064Z" fill="#231F20"/>
<path d="M72.9141 219.113C62.2424 219.113 54.4612 203.92 54.1257 203.25C54.075 203.143 54.0542 203.025 54.0655 202.907C54.0769 202.789 54.12 202.676 54.1902 202.581C54.2604 202.483 54.3575 202.408 54.4698 202.365C54.5821 202.321 54.7047 202.311 54.8225 202.336C61.2746 203.547 72.3592 201.461 72.4754 201.435C72.5656 201.418 72.6585 201.42 72.7477 201.443C72.8368 201.465 72.92 201.506 72.9915 201.564C73.0627 201.62 73.1213 201.69 73.1635 201.77C73.2058 201.849 73.2307 201.937 73.2367 202.027L74.3207 218.392C74.3277 218.476 74.3179 218.561 74.2919 218.642C74.2658 218.723 74.224 218.798 74.1688 218.862C74.1137 218.927 74.0462 218.98 73.9704 219.019C73.8946 219.057 73.8119 219.08 73.7271 219.087L72.9141 219.113ZM55.9065 203.791C57.9195 207.306 64.6426 217.825 72.927 217.825L71.9334 202.826C69.5719 203.25 61.6488 204.486 55.9065 203.791Z" fill="#231F20"/>
<path d="M137.693 202.812L165.656 201.447L151.642 260.596L121.576 263.544L137.693 202.812Z" fill="#231F20"/>
<path d="M121.601 264.189C121.509 264.191 121.416 264.172 121.332 264.134C121.247 264.096 121.172 264.04 121.111 263.97C121.042 263.89 120.993 263.794 120.969 263.691C120.944 263.588 120.944 263.481 120.969 263.378L137.086 202.659C137.12 202.526 137.196 202.407 137.303 202.321C137.41 202.235 137.543 202.187 137.68 202.182L165.63 200.805C165.731 200.796 165.832 200.813 165.924 200.854C166.017 200.894 166.097 200.957 166.159 201.037C166.225 201.114 166.271 201.206 166.293 201.304C166.316 201.403 166.314 201.505 166.288 201.603L152.287 260.751C152.256 260.882 152.184 260.999 152.082 261.087C151.98 261.175 151.854 261.228 151.72 261.241L121.601 264.189ZM138.222 203.444L122.453 262.811L151.152 260.005L164.856 202.131L138.222 203.444Z" fill="#231F20"/>
<path d="M101.355 253.333C101.19 253.334 101.032 253.271 100.912 253.159C100.792 253.046 100.719 252.892 100.71 252.728C100.149 244.205 98.2595 235.821 95.1092 227.879C95.0394 227.724 95.0341 227.547 95.0946 227.388C95.1551 227.228 95.2763 227.1 95.4318 227.029C95.5087 226.993 95.5921 226.973 95.677 226.969C95.762 226.966 95.8467 226.98 95.9262 227.01C96.0057 227.04 96.0783 227.085 96.1397 227.144C96.2011 227.203 96.25 227.273 96.2835 227.351C99.4994 235.431 101.428 243.963 102 252.638C102.011 252.81 101.953 252.98 101.84 253.11C101.726 253.24 101.566 253.32 101.394 253.333H101.355Z" fill="#231F20"/>
<path d="M57.4807 175.068C57.4168 175.08 57.351 175.08 57.2871 175.068C57.1252 175.017 56.9898 174.905 56.9101 174.756C56.8304 174.606 56.8128 174.432 56.8613 174.27C57.3867 172.609 58.5454 171.222 60.0873 170.407C60.863 170.105 61.6964 169.98 62.5268 170.04C63.3572 170.1 64.1637 170.344 64.8877 170.755C65.0295 170.835 65.1354 170.966 65.1843 171.122C65.2331 171.277 65.2211 171.445 65.1508 171.592C65.0805 171.739 64.957 171.853 64.8052 171.913C64.6534 171.973 64.4846 171.973 64.3328 171.913C63.7728 171.59 63.1485 171.394 62.504 171.338C61.8596 171.283 61.2107 171.369 60.6035 171.591C59.418 172.233 58.5226 173.301 58.1001 174.579C58.0658 174.717 57.9863 174.84 57.8742 174.929C57.7621 175.017 57.6237 175.066 57.4807 175.068Z" fill="#231F20"/>
<path d="M75.3529 171.256H75.2368C75.0684 171.222 74.9201 171.123 74.8236 170.981C74.7271 170.839 74.6902 170.665 74.7206 170.496C74.822 169.967 75.0449 169.468 75.3718 169.04C75.6986 168.611 76.1206 168.263 76.6046 168.024C77.7402 167.574 79.1854 167.934 80.721 169.08C80.8437 169.185 80.9225 169.332 80.9419 169.492C80.9613 169.651 80.92 169.813 80.826 169.944C80.732 170.075 80.5922 170.166 80.4342 170.199C80.2762 170.232 80.1115 170.205 79.9726 170.123C78.7725 169.26 77.7789 168.951 77.095 169.209C76.8117 169.369 76.5668 169.59 76.3774 169.854C76.188 170.119 76.0586 170.421 75.9981 170.741C75.9657 170.887 75.884 171.018 75.7666 171.112C75.6492 171.206 75.5032 171.257 75.3529 171.256Z" fill="#231F20"/>
<path d="M19.8781 185.998C19.8781 185.998 21.4524 190.71 16.4585 204.358C11.4646 218.006 11.671 228.46 24.2009 230.34C36.7309 232.22 44.0604 230.713 45.7121 220.04C47.3639 209.366 37.7245 197.65 37.7245 197.65" fill="white"/>
<path d="M32.0209 231.666C29.3703 231.633 26.7261 231.401 24.1106 230.971C19.5167 230.289 16.2649 228.396 14.4712 225.383C11.813 220.903 12.2646 213.95 15.852 204.126C20.6652 190.981 19.2845 186.243 19.2716 186.204C19.2445 186.12 19.2343 186.031 19.2417 185.942C19.2491 185.854 19.2738 185.768 19.3146 185.689C19.3553 185.61 19.4112 185.54 19.4791 185.482C19.547 185.425 19.6256 185.381 19.7103 185.354C19.795 185.327 19.8843 185.317 19.9729 185.325C20.0616 185.332 20.1479 185.357 20.227 185.397C20.3061 185.438 20.3764 185.494 20.4339 185.562C20.4913 185.629 20.5349 185.708 20.562 185.792C20.562 185.998 22.1492 190.942 17.1295 204.577C13.6841 214.014 13.2582 220.606 15.6455 224.727C17.2585 227.443 20.1103 229.065 24.3687 229.696C36.2792 231.486 43.5055 230.469 45.1444 219.976C46.7316 209.766 37.4019 198.165 37.2986 198.088C37.244 198.023 37.203 197.949 37.1779 197.868C37.1528 197.787 37.1442 197.702 37.1527 197.618C37.1611 197.534 37.1863 197.453 37.2269 197.379C37.2675 197.304 37.3226 197.239 37.389 197.187C37.5211 197.08 37.6901 197.03 37.8592 197.046C38.0283 197.063 38.184 197.146 38.2923 197.277C38.6923 197.766 48.0994 209.431 46.409 220.22C44.9895 228.924 39.7762 231.666 32.0209 231.666Z" fill="#231F20"/>
<path d="M154.713 263.544C165.037 248.931 165.037 248.931 164.456 243.897C164.004 240.034 162.069 236.648 160.043 233.455C157.462 229.387 151.823 223.155 149.719 231.46C148.674 235.451 147.061 240.356 148.171 244.451C149.203 248.236 152.042 251.339 153.604 254.892" fill="white"/>
<path d="M154.713 264.188C154.58 264.187 154.45 264.147 154.339 264.072C154.201 263.971 154.108 263.821 154.079 263.653C154.05 263.484 154.088 263.312 154.184 263.171C164.379 248.763 164.379 248.763 163.811 243.974C163.372 240.111 161.346 236.712 159.488 233.803C157.63 230.893 154.688 227.764 152.778 228.047C151.487 228.253 150.687 230.107 150.287 231.627L149.913 233.017C148.932 236.674 147.797 240.819 148.752 244.283C149.461 246.447 150.477 248.498 151.771 250.373C152.658 251.738 153.451 253.162 154.146 254.634C154.214 254.792 154.217 254.969 154.154 255.129C154.091 255.288 153.968 255.416 153.81 255.484C153.653 255.553 153.474 255.556 153.315 255.493C153.155 255.43 153.027 255.307 152.958 255.149C152.286 253.73 151.519 252.358 150.661 251.042C149.301 249.06 148.236 246.892 147.5 244.605C146.468 240.807 147.642 236.481 148.674 232.67L149.048 231.292C149.758 228.537 150.945 227.017 152.571 226.76C155.939 226.232 159.552 231.472 160.585 233.094C162.52 236.133 164.611 239.712 165.101 243.806C165.721 249.085 165.721 249.085 155.242 263.905C155.185 263.992 155.106 264.063 155.014 264.113C154.921 264.162 154.818 264.188 154.713 264.188Z" fill="#231F20"/>
<path d="M27.969 283.346C27.969 283.346 74.2948 326.066 87.5345 321.186C100.774 316.307 116.195 295.938 125.279 281.737C134.364 267.536 146.132 247.914 147.861 239.172C149.59 230.43 146.881 223.902 143.603 225.537C140.325 227.172 128.053 239.159 128.053 239.159C128.053 239.159 132.196 227.443 130.26 227.391C128.324 227.34 122.621 232.541 120.724 249.279L81.3663 289.192L49.106 257.802" fill="white"/>
<path d="M85.1858 322.189C69.3524 322.189 29.3238 285.457 27.5301 283.809C27.4697 283.749 27.4217 283.677 27.3889 283.599C27.3562 283.521 27.3393 283.436 27.3393 283.351C27.3393 283.266 27.3562 283.182 27.3889 283.104C27.4217 283.025 27.4697 282.954 27.5301 282.894C27.6529 282.776 27.8172 282.709 27.9882 282.709C28.1593 282.709 28.3236 282.776 28.4463 282.894C28.5625 283.01 40.1633 293.684 53.2223 303.61C70.359 316.64 82.1533 322.524 87.3537 320.606C102.361 315.082 119.795 289.216 124.776 281.414C134.105 266.826 145.577 247.629 147.268 239.08C148.558 232.836 147.371 227.673 145.551 226.295C145.333 226.105 145.06 225.986 144.771 225.956C144.483 225.926 144.192 225.986 143.938 226.128C140.777 227.699 128.66 239.544 128.531 239.66C128.429 239.762 128.295 239.826 128.151 239.84C128.007 239.854 127.863 239.818 127.744 239.737C127.62 239.662 127.525 239.547 127.476 239.412C127.426 239.276 127.425 239.127 127.473 238.99C129.06 234.497 130.454 229.192 130.131 228.085C128.84 228.355 123.305 232.527 121.395 249.316C121.372 249.459 121.309 249.593 121.214 249.702L81.8565 289.615C81.7977 289.675 81.7274 289.723 81.6498 289.755C81.5723 289.788 81.489 289.805 81.4049 289.805C81.3208 289.805 81.2375 289.788 81.16 289.755C81.0824 289.723 81.0121 289.675 80.9533 289.615L48.6929 258.226C48.5697 258.106 48.4991 257.943 48.4967 257.771C48.4943 257.6 48.5602 257.434 48.68 257.312C48.7998 257.189 48.9636 257.118 49.1354 257.116C49.3073 257.113 49.473 257.179 49.5962 257.299L81.4565 288.199L120.169 248.891C122.117 232.244 127.911 226.72 130.299 226.72C130.467 226.719 130.632 226.762 130.779 226.843C130.926 226.924 131.049 227.041 131.137 227.184C132.002 228.471 130.686 233.287 129.537 236.827C133.15 233.364 140.79 226.192 143.358 224.918C143.828 224.669 144.361 224.563 144.891 224.614C145.42 224.664 145.924 224.868 146.338 225.201C148.842 227.119 149.771 233.029 148.532 239.261C146.803 248.016 135.254 267.354 125.86 282.045C119.408 292.152 102.761 316.241 87.7924 321.752C86.9573 322.054 86.0741 322.202 85.1858 322.189Z" fill="#231F20"/>
<path d="M60.1648 183.744C58.4507 183.753 56.7694 183.276 55.3171 182.367C53.8648 181.459 52.7016 180.157 51.9632 178.614C51.2248 177.07 50.9418 175.349 51.1472 173.651C51.3526 171.953 52.0379 170.349 53.1232 169.025C54.2084 167.701 55.6487 166.713 57.2759 166.175C58.9031 165.638 60.65 165.573 62.3126 165.99C63.9752 166.406 65.4847 167.285 66.6651 168.525C67.8454 169.765 68.6477 171.315 68.9783 172.993C69.4403 175.319 68.9653 177.732 67.6561 179.711C66.347 181.689 64.3092 183.074 61.9842 183.564C61.3848 183.681 60.7756 183.741 60.1648 183.744ZM60.1648 167.122C59.6487 167.117 59.1337 167.168 58.6292 167.277C57.1187 167.566 55.729 168.298 54.6371 169.379C53.5452 170.46 52.8007 171.84 52.4985 173.345C52.1963 174.85 52.3501 176.41 52.9403 177.827C53.5305 179.244 54.5304 180.454 55.8124 181.302C57.0943 182.15 58.6004 182.597 60.1384 182.588C61.6764 182.578 63.1767 182.112 64.448 181.248C65.7193 180.384 66.7039 179.162 67.2764 177.738C67.8488 176.314 67.983 174.751 67.6621 173.251C67.2984 171.532 66.3589 169.989 64.9984 168.875C63.6379 167.761 61.9376 167.143 60.1777 167.122H60.1648Z" fill="#231F20"/>
<path d="M79.1984 179.856C77.5849 179.836 76.0062 179.386 74.6263 178.551C73.2463 177.717 72.1156 176.529 71.3516 175.111C70.5877 173.693 70.2184 172.097 70.2821 170.488C70.3458 168.879 70.8402 167.317 71.714 165.963C72.7025 164.493 74.1033 163.345 75.7415 162.664C77.3798 161.983 79.1828 161.798 80.9255 162.134C82.6682 162.469 84.2734 163.309 85.5405 164.548C86.8077 165.788 87.6807 167.373 88.0506 169.105C88.5126 171.431 88.0376 173.844 86.7284 175.823C85.4193 177.801 83.3815 179.186 81.0566 179.676C80.4445 179.795 79.8222 179.856 79.1984 179.856ZM79.1984 163.234C78.6784 163.234 78.1597 163.286 77.6499 163.388C76.1395 163.678 74.7497 164.41 73.6578 165.491C72.5659 166.571 71.8214 167.952 71.5192 169.457C71.217 170.962 71.3708 172.522 71.961 173.939C72.5512 175.356 73.5511 176.566 74.8331 177.414C76.115 178.262 77.6211 178.709 79.1591 178.7C80.6971 178.69 82.1974 178.224 83.4687 177.36C84.74 176.496 85.7246 175.274 86.2971 173.85C86.8695 172.426 87.0038 170.863 86.6828 169.363C86.3196 167.646 85.382 166.105 84.0242 164.991C82.6663 163.877 80.969 163.258 79.2113 163.234H79.1984Z" fill="#231F20"/>
<path d="M68.1911 173.007C68.0729 173.01 67.9565 172.978 67.8556 172.917C67.7828 172.875 67.7193 172.818 67.6687 172.751C67.6182 172.684 67.5816 172.607 67.5612 172.525C67.5407 172.444 67.5368 172.359 67.5497 172.276C67.5626 172.193 67.592 172.113 67.6362 172.042C67.8175 171.752 68.0547 171.502 68.3339 171.305C68.6131 171.108 68.9288 170.968 69.2625 170.894C69.5963 170.82 69.9416 170.812 70.2782 170.872C70.6149 170.932 70.9362 171.058 71.2236 171.243C71.3539 171.332 71.4469 171.466 71.4851 171.619C71.5233 171.772 71.5041 171.933 71.4309 172.073C71.3578 172.212 71.2358 172.32 71.0882 172.376C70.9406 172.432 70.7776 172.432 70.63 172.376C69.3396 171.72 68.7976 172.595 68.746 172.698C68.6881 172.793 68.6065 172.871 68.5093 172.926C68.4121 172.98 68.3024 173.008 68.1911 173.007Z" fill="#231F20"/>
<path d="M36.1889 177.332C36.0178 177.342 35.8496 177.284 35.7214 177.17C35.5931 177.057 35.5153 176.897 35.505 176.727C35.4947 176.556 35.5529 176.388 35.6666 176.26C35.7804 176.132 35.9404 176.054 36.1115 176.044L51.5965 174.152C51.6806 174.141 51.766 174.147 51.8476 174.17C51.9293 174.193 52.0055 174.232 52.0717 174.285C52.1379 174.338 52.1928 174.403 52.2331 174.478C52.2733 174.552 52.2982 174.634 52.3062 174.718C52.3282 174.887 52.2821 175.058 52.1781 175.193C52.0741 175.328 51.9206 175.417 51.7513 175.439L36.2664 177.319L36.1889 177.332Z" fill="#231F20"/>
<path d="M37.3373 182.304C37.3373 182.304 32.0466 164.472 39.131 152.33C45.0024 142.262 60.4486 135.297 71.8172 134.923C69.0811 132.662 65.7539 131.229 62.2282 130.793C58.7024 130.358 55.1253 130.937 51.919 132.464C40.1246 137.614 33.8532 143.421 31.5176 153.978C28.1883 169.248 37.3373 182.304 37.3373 182.304Z" fill="#231F20"/>
<path d="M37.3373 182.92C37.2342 182.919 37.1329 182.894 37.0411 182.847C36.9494 182.8 36.8697 182.733 36.8083 182.65C36.7179 182.508 27.5302 169.183 30.8982 153.823C33.1435 143.522 38.9761 137.368 51.6738 131.845C55.0071 130.282 58.7162 129.694 62.3707 130.15C66.0253 130.606 69.4753 132.086 72.3204 134.42C72.4105 134.509 72.4731 134.621 72.5005 134.745C72.528 134.868 72.5192 134.997 72.4753 135.115C72.4328 135.235 72.3542 135.339 72.2503 135.413C72.1463 135.486 72.0221 135.526 71.8946 135.527C60.9519 135.926 45.5831 142.557 39.6859 152.664C32.8209 164.419 37.9051 181.942 37.9567 182.122C37.9996 182.268 37.9895 182.424 37.9281 182.563C37.8667 182.702 37.758 182.815 37.6212 182.882C37.5299 182.912 37.4335 182.926 37.3373 182.92ZM60.1389 131.291C57.3968 131.311 54.6891 131.903 52.19 133.029C39.9182 138.385 34.3049 144.295 32.1499 154.119C29.9949 163.942 33.2983 173.238 35.7243 178.144C34.5887 172.028 33.5048 160.698 38.5761 152.007C44.383 142.055 59.0163 135.347 70.088 134.381C67.1541 132.389 63.688 131.321 60.1389 131.317V131.291Z" fill="#231F20"/>
<path d="M45.7766 179.161C45.7766 179.161 38.2664 164.895 31.466 174.603C24.6655 184.311 36.0985 193.838 42.6022 192.551" fill="white"/>
<path d="M41.3248 193.324C37.5955 193.324 33.1565 190.749 30.666 186.886C29.3555 185.017 28.6753 182.781 28.724 180.501C28.7727 178.221 29.5478 176.015 30.937 174.204C32.7306 171.629 34.8082 170.341 36.989 170.535C42.1507 170.856 46.1768 178.491 46.3574 178.813C46.4345 178.967 46.448 179.145 46.3949 179.309C46.3418 179.473 46.2264 179.609 46.0735 179.689C45.9227 179.766 45.7475 179.781 45.5857 179.73C45.4239 179.68 45.2886 179.568 45.209 179.418C45.209 179.341 41.3377 172.092 36.9116 171.822C35.1824 171.706 33.5178 172.762 31.9951 174.938C30.7655 176.546 30.0782 178.501 30.0318 180.522C29.9854 182.544 30.5824 184.529 31.737 186.191C34.2404 190.053 39.0537 192.551 42.4733 191.882C42.6424 191.851 42.8168 191.888 42.9591 191.984C43.1014 192.081 43.2003 192.228 43.2346 192.397C43.2648 192.564 43.2275 192.736 43.1308 192.876C43.0341 193.016 42.8859 193.112 42.7185 193.143C42.261 193.249 41.7942 193.31 41.3248 193.324Z" fill="#231F20"/>
<path d="M45.9057 255.537C45.8164 255.536 45.7281 255.518 45.6461 255.482C45.5641 255.447 45.4901 255.395 45.4282 255.331C45.2734 255.151 29.44 238.027 18.5748 233.881C18.4867 233.859 18.4043 233.818 18.333 233.762C18.2617 233.706 18.2031 233.636 18.161 233.555C18.1189 233.475 18.0943 233.387 18.0888 233.296C18.0833 233.206 18.0969 233.115 18.1289 233.03C18.1609 232.945 18.2105 232.868 18.2744 232.804C18.3384 232.74 18.4152 232.689 18.5 232.657C18.5847 232.624 18.6754 232.609 18.7661 232.614C18.8568 232.619 18.9455 232.643 19.0264 232.684C30.1885 236.997 45.725 253.735 46.3831 254.456C46.5022 254.578 46.5687 254.742 46.5687 254.913C46.5687 255.083 46.5022 255.247 46.3831 255.37C46.319 255.428 46.2436 255.473 46.1615 255.502C46.0795 255.531 45.9925 255.543 45.9057 255.537Z" fill="#231F20"/>
<path d="M199.498 112.92C188.306 112.92 177.366 109.608 168.06 103.404C158.754 97.2006 151.501 88.3828 147.218 78.0661C142.935 67.7494 141.815 56.3972 143.998 45.4451C146.182 34.493 151.571 24.4328 159.485 16.5367C167.399 8.64068 177.482 3.2634 188.458 1.08489C199.435 -1.09363 210.813 0.0244603 221.153 4.29777C231.493 8.57108 240.33 15.8077 246.548 25.0925C252.766 34.3772 256.085 45.2931 256.085 56.4598C256.068 71.4286 250.1 85.7793 239.492 96.3638C228.883 106.948 214.5 112.902 199.498 112.92ZM199.498 2.20089C188.737 2.20089 178.218 5.38496 169.271 11.3504C160.324 17.3158 153.351 25.7946 149.234 35.7143C145.117 45.6341 144.041 56.5493 146.142 67.0793C148.243 77.6093 153.426 87.2812 161.037 94.8716C168.648 102.462 178.343 107.63 188.898 109.722C199.452 111.814 210.392 110.736 220.332 106.624C230.273 102.512 238.768 95.5518 244.743 86.6225C250.718 77.6932 253.905 67.1965 253.901 56.4598C253.878 42.0728 248.138 28.2819 237.94 18.1107C227.742 7.93959 213.917 2.21818 199.498 2.20089Z" fill="black"/>
<path d="M239.247 42.2296C238.86 42.8532 238.421 43.4436 237.936 43.9946L191.374 90.3871C191.135 90.7467 190.81 91.0417 190.429 91.2457C190.048 91.4498 189.622 91.5566 189.19 91.5566C188.757 91.5566 188.331 91.4498 187.95 91.2457C187.569 91.0417 187.245 90.7467 187.006 90.3871C178.27 81.4093 169.534 72.417 160.798 63.4102C160.468 63.1633 160.203 62.8404 160.026 62.4692C159.848 62.098 159.763 61.6895 159.778 61.2784C159.793 60.8674 159.908 60.4661 160.112 60.1088C160.316 59.7514 160.604 59.4487 160.951 59.2264L167.503 53.3211C167.738 53.026 168.037 52.7878 168.377 52.624C168.718 52.4602 169.09 52.3751 169.468 52.3751C169.846 52.3751 170.219 52.4602 170.559 52.624C170.9 52.7878 171.199 53.026 171.434 53.3211L186.918 69.054C188.534 70.6883 189.736 70.7101 191.286 69.054L227.453 33.1211C227.689 32.7568 228.012 32.4572 228.393 32.2497C228.775 32.0423 229.203 31.9336 229.637 31.9336C230.072 31.9336 230.499 32.0423 230.881 32.2497C231.262 32.4572 231.586 32.7568 231.821 33.1211C233.874 35.1694 235.927 37.2177 237.936 39.2879C238.4 39.8301 238.823 40.4054 239.203 41.0093L239.247 42.2296Z" fill="#121212"/>
<path d="M135.114 24.6455C134.888 24.6445 134.668 24.5762 134.481 24.4494L110.457 7.88841C110.223 7.71801 110.065 7.46348 110.016 7.17873C109.967 6.89399 110.031 6.60143 110.195 6.36306C110.276 6.24594 110.379 6.14608 110.499 6.06934C110.619 5.99261 110.753 5.94053 110.893 5.91618C111.034 5.89182 111.177 5.89568 111.316 5.92752C111.455 5.95935 111.586 6.01852 111.702 6.10156L135.726 22.6625C135.845 22.7414 135.947 22.8433 136.026 22.9621C136.105 23.081 136.159 23.2144 136.186 23.3545C136.212 23.4947 136.21 23.6387 136.18 23.7781C136.15 23.9175 136.092 24.0494 136.01 24.1661C135.91 24.3124 135.777 24.4326 135.621 24.5161C135.465 24.5996 135.291 24.644 135.114 24.6455Z" fill="black"/>
<path d="M111.134 107.035C110.958 107.039 110.784 107 110.628 106.92C110.471 106.84 110.337 106.722 110.239 106.577C110.075 106.339 110.011 106.046 110.06 105.761C110.109 105.476 110.267 105.222 110.501 105.052L134.525 88.4906C134.643 88.4081 134.777 88.3499 134.919 88.3194C135.06 88.289 135.206 88.2869 135.348 88.3132C135.491 88.3396 135.626 88.3939 135.747 88.473C135.868 88.552 135.972 88.6543 136.053 88.7739C136.136 88.8906 136.193 89.0225 136.224 89.1619C136.254 89.3013 136.256 89.4453 136.229 89.5854C136.203 89.7256 136.149 89.859 136.07 89.9779C135.991 90.0967 135.889 90.1986 135.769 90.2774L111.746 106.838C111.568 106.967 111.354 107.036 111.134 107.035Z" fill="black"/>
<path d="M132.603 57.5482H111.178C110.888 57.5482 110.61 57.4334 110.406 57.2291C110.201 57.0248 110.086 56.7476 110.086 56.4587C110.086 56.1697 110.201 55.8926 110.406 55.6883C110.61 55.4839 110.888 55.3691 111.178 55.3691H132.603C132.892 55.3691 133.17 55.4839 133.375 55.6883C133.58 55.8926 133.695 56.1697 133.695 56.4587C133.695 56.7476 133.58 57.0248 133.375 57.2291C133.17 57.4334 132.892 57.5482 132.603 57.5482Z" fill="black"/>
<path d="M266.088 24.6455C265.911 24.644 265.737 24.5996 265.581 24.5161C265.425 24.4326 265.291 24.3124 265.192 24.1661C265.11 24.0494 265.052 23.9175 265.022 23.7781C264.992 23.6387 264.99 23.4947 265.016 23.3545C265.043 23.2144 265.097 23.081 265.176 22.9621C265.255 22.8433 265.357 22.7414 265.476 22.6625L289.5 6.10156C289.616 6.01852 289.747 5.95935 289.885 5.92752C290.024 5.89568 290.168 5.89182 290.309 5.91618C290.449 5.94053 290.583 5.99261 290.703 6.06934C290.823 6.14608 290.926 6.24594 291.007 6.36306C291.091 6.48016 291.15 6.61266 291.183 6.75292C291.215 6.89317 291.219 7.03841 291.194 7.18023C291.17 7.32205 291.118 7.45765 291.041 7.5792C290.963 7.70075 290.863 7.80583 290.745 7.88841L266.721 24.4494C266.534 24.5762 266.314 24.6445 266.088 24.6455Z" fill="black"/>
<path d="M290.068 107.035C289.849 107.033 289.635 106.965 289.456 106.838L265.432 90.2774C265.313 90.1986 265.211 90.0967 265.132 89.9779C265.053 89.859 264.999 89.7256 264.973 89.5854C264.946 89.4453 264.948 89.3013 264.978 89.1619C265.008 89.0225 265.066 88.8906 265.149 88.7739C265.23 88.6543 265.334 88.552 265.455 88.473C265.576 88.3939 265.711 88.3396 265.854 88.3132C265.996 88.2869 266.142 88.289 266.283 88.3194C266.425 88.3499 266.559 88.4081 266.677 88.4906L290.701 105.052C290.819 105.134 290.92 105.239 290.997 105.361C291.074 105.482 291.126 105.618 291.151 105.76C291.175 105.902 291.171 106.047 291.139 106.187C291.107 106.327 291.047 106.46 290.963 106.577C290.864 106.722 290.731 106.84 290.574 106.92C290.418 107 290.244 107.039 290.068 107.035Z" fill="black"/>
<path d="M290.068 57.5482H268.643C268.353 57.5482 268.076 57.4334 267.871 57.2291C267.666 57.0248 267.551 56.7476 267.551 56.4587C267.551 56.1697 267.666 55.8926 267.871 55.6883C268.076 55.4839 268.353 55.3691 268.643 55.3691H290.068C290.357 55.3691 290.635 55.4839 290.84 55.6883C291.045 55.8926 291.16 56.1697 291.16 56.4587C291.16 56.7476 291.045 57.0248 290.84 57.2291C290.635 57.4334 290.357 57.5482 290.068 57.5482Z" fill="black"/>
</svg>
