<svg width="375" height="317" viewBox="0 0 375 317" fill="none" xmlns="http://www.w3.org/2000/svg">
<path d="M377.869 260.341H-0.735479C-0.917174 260.341 -1.09143 260.269 -1.21991 260.14C-1.34838 260.012 -1.42056 259.837 -1.42056 259.656C-1.42056 259.474 -1.34838 259.3 -1.21991 259.171C-1.09143 259.043 -0.917174 258.971 -0.735479 258.971H377.869C378.05 258.974 378.222 259.048 378.35 259.175C378.478 259.303 378.551 259.475 378.554 259.656C378.554 259.837 378.482 260.012 378.354 260.14C378.225 260.269 378.051 260.341 377.869 260.341Z" fill="#D1D3D4"/>
<path d="M199.665 307.378H189.362C189.18 307.378 189.006 307.306 188.877 307.177C188.749 307.049 188.677 306.875 188.677 306.693C188.677 306.511 188.749 306.337 188.877 306.208C189.006 306.08 189.18 306.008 189.362 306.008H199.665C199.847 306.008 200.021 306.08 200.15 306.208C200.278 306.337 200.35 306.511 200.35 306.693C200.347 306.873 200.274 307.046 200.146 307.173C200.018 307.301 199.846 307.374 199.665 307.378Z" fill="#D1D3D4"/>
<path d="M79.9948 290.376H63.5528C63.3711 290.376 63.1968 290.304 63.0684 290.175C62.9399 290.047 62.8677 289.873 62.8677 289.691C62.8677 289.509 62.9399 289.335 63.0684 289.207C63.1968 289.078 63.3711 289.006 63.5528 289.006H79.9948C80.1765 289.006 80.3508 289.078 80.4792 289.207C80.6077 289.335 80.6799 289.509 80.6799 289.691C80.6799 289.873 80.6077 290.047 80.4792 290.175C80.3508 290.304 80.1765 290.376 79.9948 290.376Z" fill="#D1D3D4"/>
<path d="M362.455 276.851H356.974C356.793 276.851 356.618 276.778 356.49 276.65C356.361 276.522 356.289 276.347 356.289 276.166C356.293 275.985 356.366 275.813 356.494 275.685C356.621 275.557 356.794 275.484 356.974 275.48H362.455C362.635 275.484 362.808 275.557 362.935 275.685C363.063 275.813 363.136 275.985 363.14 276.166C363.14 276.347 363.068 276.522 362.939 276.65C362.811 276.778 362.637 276.851 362.455 276.851Z" fill="#D1D3D4"/>
<path d="M338.504 296.747H330.283C330.102 296.747 329.927 296.675 329.799 296.546C329.67 296.418 329.598 296.244 329.598 296.062C329.598 295.88 329.67 295.706 329.799 295.578C329.927 295.449 330.102 295.377 330.283 295.377H338.504C338.685 295.38 338.857 295.454 338.985 295.581C339.113 295.709 339.186 295.881 339.189 296.062C339.189 296.244 339.117 296.418 338.989 296.546C338.86 296.675 338.686 296.747 338.504 296.747Z" fill="#D1D3D4"/>
<path d="M370.731 310.448H362.51C362.328 310.448 362.154 310.376 362.025 310.248C361.897 310.119 361.825 309.945 361.825 309.763C361.825 309.582 361.897 309.407 362.025 309.279C362.154 309.15 362.328 309.078 362.51 309.078H370.731C370.911 309.082 371.083 309.155 371.211 309.283C371.339 309.41 371.412 309.583 371.416 309.763C371.416 309.945 371.344 310.119 371.215 310.248C371.087 310.376 370.912 310.448 370.731 310.448Z" fill="#D1D3D4"/>
<path d="M28.408 296.747H20.9132C20.7315 296.747 20.5572 296.675 20.4287 296.546C20.3003 296.418 20.2281 296.244 20.2281 296.062C20.2281 295.88 20.3003 295.706 20.4287 295.578C20.5572 295.449 20.7315 295.377 20.9132 295.377H28.4491C28.6308 295.377 28.805 295.449 28.9335 295.578C29.062 295.706 29.1342 295.88 29.1342 296.062C29.1343 296.156 29.1154 296.248 29.0784 296.334C29.0414 296.42 28.9872 296.497 28.9192 296.562C28.8512 296.626 28.7707 296.675 28.6828 296.707C28.5949 296.739 28.5014 296.753 28.408 296.747Z" fill="#D1D3D4"/>
<path d="M36.5879 273.235H24.64C24.4583 273.235 24.2841 273.163 24.1556 273.035C24.0271 272.906 23.955 272.732 23.955 272.55C23.955 272.369 24.0271 272.194 24.1556 272.066C24.2841 271.937 24.4583 271.865 24.64 271.865H36.5879C36.7696 271.865 36.9439 271.937 37.0723 272.066C37.2008 272.194 37.273 272.369 37.273 272.55C37.2695 272.731 37.1962 272.903 37.0684 273.031C36.9407 273.159 36.7685 273.232 36.5879 273.235Z" fill="#D1D3D4"/>
<path d="M126.485 316.341H119.031C118.849 316.341 118.675 316.269 118.546 316.14C118.418 316.012 118.346 315.837 118.346 315.656C118.346 315.474 118.418 315.3 118.546 315.171C118.675 315.043 118.849 314.971 119.031 314.971H126.485C126.666 314.971 126.841 315.043 126.969 315.171C127.098 315.3 127.17 315.474 127.17 315.656C127.17 315.837 127.098 316.012 126.969 316.14C126.841 316.269 126.666 316.341 126.485 316.341Z" fill="#D1D3D4"/>
<path d="M216.217 276.851H207.256C207.074 276.851 206.9 276.778 206.772 276.65C206.643 276.522 206.571 276.347 206.571 276.166C206.574 275.985 206.648 275.813 206.775 275.685C206.903 275.557 207.075 275.484 207.256 275.48H216.272C216.452 275.484 216.625 275.557 216.752 275.685C216.88 275.813 216.953 275.985 216.957 276.166C216.957 276.26 216.938 276.354 216.9 276.441C216.862 276.528 216.807 276.606 216.737 276.67C216.668 276.735 216.585 276.784 216.496 276.815C216.406 276.846 216.311 276.858 216.217 276.851Z" fill="#D1D3D4"/>
<path d="M249.087 296.747H239.318C239.136 296.747 238.962 296.675 238.833 296.546C238.705 296.418 238.633 296.244 238.633 296.062C238.636 295.881 238.71 295.709 238.837 295.581C238.965 295.454 239.137 295.38 239.318 295.377H249.087C249.268 295.38 249.44 295.454 249.568 295.581C249.695 295.709 249.769 295.881 249.772 296.062C249.772 296.244 249.7 296.418 249.572 296.546C249.443 296.675 249.269 296.747 249.087 296.747Z" fill="#D1D3D4"/>
<path d="M354.111 214.688C353.987 214.689 353.865 214.657 353.759 214.594C353.653 214.531 353.566 214.44 353.508 214.331C350.027 207.892 346.397 203.795 342.081 201.452C337.422 198.931 330.489 198.533 326.241 202.63C326.111 202.757 325.935 202.827 325.752 202.825C325.57 202.822 325.396 202.747 325.269 202.616C325.141 202.486 325.071 202.31 325.074 202.127C325.076 201.945 325.151 201.771 325.282 201.644C330.009 197.081 337.614 197.533 342.738 200.273C347.301 202.753 351.11 207.015 354.713 213.715C354.756 213.794 354.782 213.88 354.791 213.97C354.8 214.059 354.79 214.149 354.763 214.234C354.736 214.32 354.693 214.399 354.635 214.468C354.577 214.536 354.506 214.592 354.426 214.633C354.327 214.678 354.219 214.697 354.111 214.688Z" fill="#D1D3D4"/>
<path d="M3.52573 225.004C3.3562 225.005 3.19174 224.947 3.05988 224.84C0.689493 222.73 1.51159 219.017 2.93656 216.468C5.30112 212.438 8.80242 209.194 13.0019 207.145C17.2013 205.095 21.9123 204.33 26.5446 204.945C28.5724 205.247 30.6551 206.48 30.3536 208.439C30.3264 208.621 30.2281 208.784 30.0803 208.893C29.9326 209.003 29.7475 209.049 29.5658 209.021C29.3841 208.994 29.2207 208.896 29.1114 208.748C29.0022 208.6 28.9562 208.415 28.9835 208.234C29.1479 207.137 27.4352 206.466 26.3253 206.288C21.9666 205.715 17.5355 206.438 13.5855 208.368C9.63545 210.298 6.34148 213.349 4.11491 217.14C2.85435 219.414 2.30629 222.346 3.96419 223.812C4.08971 223.94 4.16002 224.113 4.16002 224.292C4.16002 224.471 4.08971 224.643 3.96419 224.771C3.85148 224.9 3.69547 224.983 3.52573 225.004Z" fill="#D1D3D4"/>
<path d="M-16.0813 225.73C-16.2432 225.729 -16.3994 225.671 -16.5223 225.565C-16.6452 225.46 -16.7268 225.314 -16.7527 225.155C-17.3642 221.345 -16.8356 217.44 -15.2335 213.93C-13.6314 210.419 -11.0272 207.461 -7.74849 205.427C-4.46976 203.393 -0.662834 202.374 3.19359 202.498C7.05 202.622 10.7838 203.883 13.9253 206.123C15.8299 194.819 22.9821 185.187 32.3952 181.391C42.4659 177.281 54.5782 180.83 60.1959 189.023C60.6352 185.725 62.2098 182.682 64.6489 180.419C66.5931 178.52 68.9279 177.068 71.4907 176.164C74.0535 175.26 76.7826 174.926 79.4878 175.185C87.9144 176.199 95.7517 182.351 100.999 192.079C101.087 192.239 101.107 192.427 101.055 192.601C101.004 192.776 100.885 192.923 100.725 193.01C100.566 193.098 100.378 193.118 100.203 193.066C100.028 193.015 99.881 192.896 99.7937 192.736C94.8337 183.529 87.1882 177.486 79.3234 176.555C76.8254 176.318 74.3056 176.627 71.9394 177.463C69.5732 178.298 67.4174 179.639 65.6217 181.391C64.2179 182.64 63.1178 184.192 62.4054 185.93C61.6931 187.669 61.3872 189.547 61.5112 191.421C61.5244 191.58 61.4826 191.739 61.3929 191.871C61.3031 192.003 61.1708 192.101 61.018 192.147C60.8648 192.192 60.7007 192.181 60.555 192.115C60.4094 192.05 60.2918 191.935 60.2233 191.791C55.6743 182.693 43.151 178.514 32.8199 182.652C23.5302 186.406 16.556 196.148 15.0078 207.452C14.9908 207.572 14.9426 207.686 14.8682 207.783C14.7937 207.879 14.6954 207.954 14.583 208C14.4699 208.048 14.3459 208.062 14.2248 208.043C14.1038 208.024 13.9905 207.971 13.8979 207.891C11.0265 205.59 7.5256 204.213 3.85629 203.941C0.186979 203.67 -3.47855 204.516 -6.6574 206.369C-9.83624 208.222 -12.3793 210.994 -13.9515 214.32C-15.5237 217.647 -16.0513 221.372 -15.4648 225.004C-15.4409 225.183 -15.4876 225.365 -15.5949 225.511C-15.7022 225.656 -15.8619 225.755 -16.0402 225.785L-16.0813 225.73Z" fill="#D1D3D4"/>
<path d="M392.516 206.37C392.339 206.37 392.169 206.301 392.041 206.179C391.914 206.056 391.838 205.889 391.831 205.712C391.365 195.559 381.007 186.626 369.662 186.53C359.756 186.53 349.466 192.325 342.259 202.095C342.17 202.223 342.038 202.315 341.888 202.355C341.737 202.395 341.577 202.381 341.437 202.314C341.296 202.254 341.18 202.148 341.108 202.014C341.036 201.879 341.011 201.724 341.039 201.574C342.711 191.75 337.189 181.46 328.475 178.13C326.115 177.3 323.61 176.967 321.115 177.151C318.62 177.335 316.191 178.032 313.978 179.199C311.967 180.17 310.181 181.552 308.737 183.256C307.292 184.96 306.221 186.948 305.593 189.092C305.565 189.192 305.515 189.286 305.447 189.364C305.378 189.442 305.292 189.504 305.196 189.544C305.101 189.588 304.998 189.611 304.894 189.611C304.79 189.611 304.687 189.588 304.593 189.544C298.215 186.405 290.857 185.904 284.112 188.151C277.367 190.397 271.779 195.21 268.557 201.547C268.52 201.628 268.468 201.702 268.402 201.763C268.336 201.824 268.259 201.871 268.175 201.902C268.09 201.933 268.001 201.946 267.911 201.942C267.822 201.937 267.734 201.915 267.653 201.875C267.488 201.801 267.359 201.664 267.295 201.494C267.231 201.325 267.236 201.137 267.31 200.971C270.648 194.428 276.383 189.426 283.32 187.011C290.257 184.596 297.859 184.953 304.538 188.009C306.066 183.659 309.246 180.085 313.389 178.062C315.771 176.811 318.385 176.066 321.068 175.873C323.751 175.679 326.445 176.042 328.982 176.938C337.559 180.213 343.245 189.777 342.683 199.423C350.027 190.476 360.016 185.228 369.676 185.242C381.719 185.242 392.708 194.833 393.215 205.671C393.223 205.854 393.158 206.033 393.035 206.168C392.912 206.304 392.74 206.386 392.557 206.397L392.516 206.37Z" fill="#D1D3D4"/>
<path d="M174.989 245.982L172.81 268.371C172.81 268.371 183.442 270.289 191.088 267.891C198.734 265.494 201.515 264.452 208.654 266.795C224.109 271.879 218.532 251.86 218.532 251.86L197.569 246.681L174.989 245.982Z" fill="black"/>
<path d="M195.692 136.738C195.692 136.738 223.739 139.136 233.138 160.511C242.538 181.885 222.725 256.34 222.725 256.34L197.569 246.681C197.569 246.681 205.447 177.556 196.829 168.581C188.211 159.606 142.858 145.795 142.858 145.795L195.692 136.738Z" fill="black"/>
<path d="M281.012 119.638C272.243 124.585 261.706 125.119 251.636 124.955C251.425 124.98 251.212 124.959 251.01 124.893C250.809 124.827 250.625 124.717 250.471 124.571C250.374 124.415 250.31 124.241 250.282 124.06C250.254 123.879 250.262 123.694 250.307 123.516C251.01 116.884 251.974 110.289 253.198 103.731C253.207 103.521 253.259 103.316 253.351 103.127C253.443 102.939 253.573 102.771 253.732 102.635C254.022 102.482 254.358 102.438 254.677 102.511C257.24 102.772 259.692 103.786 262.268 103.786C264.186 103.786 266.091 103.21 268.023 103.333C269.357 103.47 270.669 103.774 271.928 104.238L277.587 106.06C278.774 106.338 279.874 106.903 280.793 107.704C281.235 108.118 281.517 108.675 281.59 109.276C281.663 109.878 281.521 110.485 281.19 110.993" fill="#8C8896"/>
<path d="M282.533 120.994C279.067 121.351 275.189 121.543 272.531 119.295C271.593 118.471 270.898 117.406 270.521 116.216C270.144 115.025 270.1 113.754 270.393 112.541C270.916 110.872 271.86 109.367 273.134 108.17C274.087 107.132 275.244 106.302 276.532 105.731C278.225 105.145 280.033 104.971 281.807 105.224C284.093 105.328 286.321 105.982 288.301 107.128C289.752 107.931 290.83 109.27 291.304 110.858C291.778 112.447 291.61 114.158 290.836 115.623C290.08 117.196 288.905 118.53 287.44 119.477C285.975 120.425 284.277 120.95 282.533 120.994Z" fill="white"/>
<path d="M279.012 121.9C276.53 122.062 274.073 121.322 272.092 119.818C271.044 118.921 270.267 117.749 269.851 116.434C269.434 115.119 269.394 113.714 269.736 112.378C270.291 110.585 271.307 108.969 272.681 107.692C273.707 106.589 274.948 105.708 276.326 105.102C278.12 104.482 280.035 104.29 281.916 104.54C284.331 104.634 286.685 105.326 288.767 106.554C292.22 108.788 293.357 112.652 291.508 115.954C290.701 117.631 289.446 119.053 287.882 120.062C286.317 121.07 284.504 121.626 282.643 121.667C281.437 121.809 280.225 121.887 279.012 121.9ZM280.094 105.801C278.982 105.773 277.875 105.959 276.833 106.349C275.63 106.89 274.549 107.668 273.654 108.637C272.448 109.761 271.551 111.176 271.051 112.747C270.786 113.836 270.825 114.976 271.164 116.044C271.502 117.111 272.126 118.066 272.969 118.804C275.422 120.873 279.149 120.681 282.465 120.338C284.107 120.315 285.709 119.832 287.09 118.943C288.471 118.054 289.574 116.795 290.274 115.31C290.965 113.998 291.111 112.467 290.68 111.048C290.249 109.63 289.276 108.438 287.973 107.733C286.09 106.638 283.969 106.017 281.793 105.924C281.245 105.801 280.697 105.801 280.094 105.801Z" fill="#231F20"/>
<path d="M265.173 95.5098C265.173 95.5098 275.34 105.512 284.465 106.224C289.422 106.657 294.398 106.822 299.372 106.718C299.372 106.718 304.387 112.938 300.674 117.569L257.048 116.747L265.173 95.5098Z" fill="white"/>
<path d="M300.674 118.255L257.048 117.419C256.938 117.42 256.829 117.394 256.732 117.343C256.634 117.292 256.551 117.218 256.489 117.128C256.426 117.037 256.387 116.932 256.375 116.823C256.363 116.714 256.377 116.603 256.418 116.501L264.556 95.2633C264.597 95.1587 264.663 95.0658 264.749 94.9928C264.834 94.9197 264.936 94.8688 265.046 94.8444C265.155 94.8201 265.269 94.823 265.377 94.8531C265.486 94.8831 265.585 94.9393 265.666 95.0166C265.762 95.1125 275.764 104.854 284.533 105.553C289.463 105.978 294.412 106.143 299.359 106.046C299.465 106.04 299.572 106.059 299.669 106.102C299.767 106.145 299.853 106.21 299.92 106.293C300.14 106.567 305.237 112.993 301.208 117.994C301.147 118.077 301.066 118.145 300.973 118.19C300.88 118.235 300.777 118.257 300.674 118.255ZM258.021 116.076L300.331 116.885C302.907 113.267 299.866 108.568 299.044 107.417C297.673 107.417 292.193 107.526 284.41 106.91C276.628 106.293 267.968 99.0312 265.447 96.7019L258.021 116.076Z" fill="#231F20"/>
<path d="M154.011 43.1556C154.011 43.1556 127.279 48.2527 121.429 62.9409C117.496 72.7513 112.372 114.61 127.101 155.331L195.692 136.738C195.692 136.738 198.432 118.378 197.336 106.485C197.336 106.485 235.495 126.448 241.483 126.462C247.47 126.476 267.269 107.814 267.269 107.814L260.61 97.7568C260.61 97.7568 245.854 108.102 244.168 103.087C243.305 100.483 216.299 69.1066 200.022 51.3629C192.102 42.6761 176.948 41.0182 154.011 43.1556Z" fill="#8C8896"/>
<path d="M175.591 44.9636L176.592 57.6651C176.592 57.6651 172.933 65.5573 164.959 63.6527C162.586 63.0394 160.378 61.9062 158.497 60.3351C156.615 58.764 155.107 56.7943 154.08 54.5685L153.956 31.4264C153.956 31.4264 159.834 28.1243 157.971 14.9844C165.174 17.9043 172.99 18.9873 180.716 18.1358C180.716 18.1358 182.415 32.043 181.511 38.4005C180.606 44.7581 175.591 44.9636 175.591 44.9636Z" fill="white"/>
<path d="M167.37 64.6946C166.502 64.6919 165.638 64.5862 164.794 64.3795C162.306 63.7522 159.99 62.5713 158.021 60.9249C156.052 59.2785 154.48 57.209 153.422 54.8705C153.402 54.7849 153.402 54.6958 153.422 54.6102L153.312 31.4681C153.308 31.3422 153.339 31.2177 153.402 31.1086C153.465 30.9996 153.557 30.9105 153.669 30.8515C153.669 30.8515 159.149 27.5357 157.327 15.0808C157.31 14.9557 157.326 14.8282 157.374 14.7114C157.422 14.5945 157.5 14.4925 157.6 14.4158C157.701 14.3391 157.82 14.2905 157.945 14.275C158.07 14.2594 158.197 14.2774 158.314 14.3273C165.401 17.1771 173.08 18.2405 180.675 17.4238C180.86 17.3996 181.046 17.4488 181.195 17.5608C181.344 17.6803 181.442 17.8516 181.469 18.0404C181.538 18.6159 183.168 32.112 182.264 38.497C181.511 43.8544 177.948 45.2382 176.4 45.5945L177.345 57.652C177.379 57.7683 177.379 57.8918 177.345 58.0082C177.345 58.0082 174.043 64.6946 167.37 64.6946ZM154.779 54.4184C155.776 56.5097 157.218 58.3575 159.006 59.8321C160.793 61.3067 162.881 62.3725 165.123 62.9545C171.906 64.585 175.304 58.6248 175.865 57.4738L174.879 44.9642C174.873 44.8699 174.885 44.7754 174.916 44.686C174.946 44.5966 174.994 44.5142 175.057 44.4435C175.118 44.3705 175.193 44.3109 175.278 44.2684C175.363 44.2259 175.455 44.2016 175.55 44.1969C175.742 44.1969 180.017 43.8681 180.812 38.1956C181.579 32.8108 180.414 21.7536 180.099 18.8214C172.887 19.5177 165.612 18.5473 158.834 15.9852C160.026 26.8232 155.943 30.783 154.724 31.7421L154.779 54.4184Z" fill="#231F20"/>
<path d="M175.742 51.2814C174.261 51.4741 172.755 51.3356 171.333 50.876C169.911 50.4163 168.609 49.6469 167.521 48.6232C163.972 45.1704 164.26 43.1426 164.26 43.1426C164.26 43.1426 169.946 46.2803 175.221 45.143L175.742 51.2814Z" fill="#231F20"/>
<path d="M174.578 52.0486C171.814 52.0789 169.149 51.0265 167.151 49.1165C163.465 45.5266 163.671 43.2933 163.698 43.0603C163.709 42.9489 163.749 42.8422 163.814 42.7509C163.879 42.6596 163.967 42.5868 164.068 42.5397C164.166 42.4892 164.274 42.4629 164.383 42.4629C164.493 42.4629 164.601 42.4892 164.699 42.5397C164.699 42.5397 170.179 45.5403 175.112 44.4853C175.206 44.4649 175.303 44.4641 175.397 44.4829C175.492 44.5018 175.581 44.5399 175.66 44.5949C175.738 44.654 175.804 44.728 175.853 44.8127C175.903 44.8974 175.935 44.991 175.948 45.0882L176.482 51.1991C176.495 51.3719 176.443 51.5432 176.337 51.6799C176.23 51.8166 176.077 51.9089 175.907 51.939C175.468 52.0141 175.023 52.0507 174.578 52.0486ZM165.315 44.362C165.966 45.7897 166.898 47.0714 168.056 48.13C168.986 48.9986 170.082 49.6708 171.278 50.1063C172.473 50.5419 173.745 50.7318 175.016 50.6648L174.605 45.9651C171.421 46.2535 168.218 45.7007 165.315 44.362Z" fill="#231F20"/>
<path d="M170.029 25.6465C170.029 25.6465 173.81 32.8125 172.673 33.8675C171.536 34.9225 168.672 33.8675 168.672 33.8675" fill="white"/>
<path d="M171.084 35.0585C170.18 35.036 169.287 34.8647 168.439 34.5515C168.355 34.5211 168.277 34.4741 168.211 34.4132C168.145 34.3523 168.092 34.2788 168.055 34.197C168.018 34.1153 167.998 34.0269 167.996 33.9372C167.993 33.8475 168.009 33.7582 168.042 33.6746C168.104 33.5039 168.231 33.3647 168.395 33.2876C168.56 33.2105 168.748 33.2019 168.919 33.2636C169.713 33.565 171.577 33.9761 172.207 33.3869C172.481 32.7977 171.193 29.2764 169.467 25.9743C169.417 25.8947 169.384 25.8057 169.37 25.7128C169.356 25.6199 169.361 25.5251 169.386 25.4344C169.41 25.3436 169.452 25.2588 169.511 25.1852C169.569 25.1116 169.642 25.0508 169.725 25.0066C169.808 24.9623 169.899 24.9356 169.992 24.928C170.086 24.9204 170.18 24.9322 170.269 24.9626C170.358 24.9929 170.44 25.0412 170.509 25.1045C170.578 25.1678 170.634 25.2446 170.673 25.3303C172.522 28.8105 174.44 33.2088 173.18 34.3871C172.595 34.8747 171.843 35.1154 171.084 35.0585Z" fill="#231F20"/>
<path d="M169.919 39.8411H169.453C168.303 39.7379 167.188 39.3958 166.178 38.8366C165.168 38.2774 164.286 37.5135 163.589 36.5938C163.478 36.45 163.426 36.2692 163.444 36.0883C163.461 35.9075 163.548 35.7403 163.685 35.6209C163.752 35.5622 163.831 35.5176 163.917 35.4899C164.002 35.4622 164.092 35.4518 164.182 35.4595C164.271 35.4671 164.358 35.4927 164.437 35.5345C164.517 35.5764 164.587 35.6337 164.644 35.7032C165.224 36.4747 165.959 37.1169 166.801 37.5887C167.643 38.0606 168.574 38.3517 169.535 38.4435C171.767 38.4218 173.915 37.589 175.578 36.1005C175.708 35.9741 175.883 35.9034 176.064 35.9034C176.246 35.9034 176.42 35.9741 176.551 36.1005C176.615 36.1642 176.666 36.24 176.701 36.3235C176.735 36.4069 176.753 36.4965 176.753 36.5869C176.753 36.6774 176.735 36.7669 176.701 36.8504C176.666 36.9339 176.615 37.0096 176.551 37.0733C174.721 38.727 172.381 39.7038 169.919 39.8411Z" fill="#231F20"/>
<path d="M165.939 24.485C166.004 23.4655 165.707 22.6169 165.276 22.5897C164.846 22.5624 164.445 23.3668 164.38 24.3864C164.316 25.4059 164.612 26.2545 165.043 26.2817C165.473 26.309 165.875 25.5045 165.939 24.485Z" fill="#231F20"/>
<path d="M176.586 24.4792C176.651 23.4596 176.354 22.611 175.923 22.5838C175.493 22.5566 175.092 23.361 175.027 24.3805C174.963 25.4001 175.259 26.2486 175.69 26.2759C176.12 26.3031 176.522 25.4987 176.586 24.4792Z" fill="#231F20"/>
<path d="M159.067 28.0285C158.37 26.7925 157.439 25.7036 156.327 24.8223C155.763 24.3016 155.048 23.975 154.285 23.8906C153.666 23.8969 153.061 24.0825 152.545 24.425C151.752 24.9116 151.069 25.5573 150.538 26.3215C150.008 27.0856 149.641 27.9514 149.462 28.8643C149.295 29.7189 149.328 30.6005 149.558 31.4402C149.995 32.7354 150.873 33.8361 152.038 34.5505C153.178 35.2361 154.397 35.7791 155.669 36.1673" fill="white"/>
<path d="M155.669 36.8402H155.436C154.114 36.4273 152.845 35.8617 151.655 35.1549C150.368 34.3508 149.4 33.1259 148.914 31.6883C148.636 30.7397 148.599 29.7367 148.805 28.7699C148.999 27.7612 149.402 26.8041 149.987 25.9595C150.572 25.115 151.327 24.4016 152.203 23.8647C152.842 23.457 153.582 23.2341 154.34 23.2207C155.25 23.3193 156.107 23.6974 156.793 24.3031C157.974 25.2491 158.965 26.4116 159.711 27.7286C159.756 27.8095 159.785 27.8986 159.795 27.9906C159.806 28.0826 159.798 28.1758 159.773 28.2649C159.747 28.3539 159.705 28.4371 159.647 28.5097C159.589 28.5822 159.518 28.6427 159.437 28.6877C159.356 28.7327 159.267 28.7613 159.175 28.7718C159.083 28.7824 158.99 28.7747 158.901 28.7493C158.812 28.7239 158.729 28.6811 158.656 28.6235C158.583 28.5659 158.523 28.4946 158.478 28.4136C157.824 27.2587 156.954 26.24 155.916 25.413C155.467 24.9916 154.896 24.723 154.285 24.6457C153.795 24.6532 153.318 24.8058 152.915 25.0841C152.211 25.517 151.603 26.0911 151.132 26.7703C150.66 27.4494 150.334 28.2189 150.175 29.0302C150.021 29.775 150.049 30.5458 150.257 31.2773C150.64 32.4214 151.417 33.3925 152.449 34.0176C153.543 34.671 154.712 35.1908 155.929 35.5659C156.105 35.6308 156.247 35.762 156.327 35.9311C156.406 36.1003 156.416 36.2939 156.354 36.4702C156.29 36.5929 156.19 36.6936 156.068 36.7595C155.946 36.8253 155.807 36.8534 155.669 36.8402Z" fill="#231F20"/>
<path d="M149.421 35.757L149.558 35.99C150.441 37.8632 151.875 39.4218 153.669 40.4567C154.556 40.9347 155.579 41.1013 156.572 40.93C157.566 40.7586 158.473 40.2591 159.149 39.5113C160.246 37.9904 159.971 35.8804 160.095 34.1128C160.328 30.7559 159.369 24.6998 161.465 21.7813C162.451 20.4112 165.206 20.3152 166.685 20.1371C169.437 19.8224 172.21 19.7399 174.975 19.8905C176.063 19.9201 177.148 20.0254 178.222 20.2056C179.798 20.4797 179.894 20.8907 180.017 22.4801C180.346 26.9606 180.99 31.3999 181.579 35.853C181.596 36.172 181.711 36.4781 181.908 36.7299C184.566 35.8804 185.347 28.2622 185.566 25.9466C185.94 21.0921 185.248 16.2146 183.538 11.6558C182.592 9.16496 181.049 6.94435 179.044 5.1886C176.867 3.14706 174.243 1.64184 171.381 0.792665C168.52 -0.0565078 165.5 -0.226196 162.561 0.297099C155.436 1.42064 148.681 5.84628 146.832 13.0671C144.854 20.69 145.777 28.7756 149.421 35.757Z" fill="black"/>
<path d="M162.187 272.637C162.606 251.684 151.26 234.464 136.844 234.175C122.429 233.887 110.403 250.64 109.984 271.593C109.565 292.547 120.911 309.767 135.327 310.055C149.742 310.344 161.768 293.591 162.187 272.637Z" fill="black"/>
<path d="M110.446 233.423L109.002 309.303L135.099 309.799L136.542 233.919L110.446 233.423Z" fill="black"/>
<path d="M135.817 271.845C136.216 250.895 124.855 233.69 110.442 233.416C96.0287 233.141 84.0216 249.902 83.623 270.852C83.2244 291.802 94.5853 309.007 108.998 309.282C123.411 309.556 135.418 292.795 135.817 271.845Z" fill="black"/>
<path d="M123.013 271.886C123.294 257.826 117.682 246.312 110.478 246.168C103.274 246.024 97.2061 257.305 96.9249 271.365C96.6437 285.424 102.256 296.939 109.46 297.083C116.664 297.227 122.732 285.946 123.013 271.886Z" fill="white"/>
<path d="M105.083 186.215C105.083 186.215 100.493 186.695 99.1498 180.735C97.807 174.774 99.1498 170.184 102.383 169.677C105.617 169.17 183.374 166.937 185.594 171.253C187.813 175.569 188.498 182.721 180.113 187.695C171.728 192.669 105.083 186.215 105.083 186.215Z" fill="white"/>
<path d="M161.808 190.203C140.008 190.203 107.467 187.134 105.069 186.901C104.411 186.901 99.8485 186.901 98.4921 180.831C97.5467 176.72 97.8481 173.034 99.3005 170.897C99.6335 170.384 100.07 169.946 100.582 169.611C101.094 169.276 101.67 169.051 102.274 168.951C103.041 168.828 183.525 165.663 186.197 170.883C188.868 176.104 188.704 183.324 180.414 188.23C177.948 189.682 170.782 190.203 161.808 190.203ZM105.083 185.53C105.754 185.53 171.508 191.847 179.647 187.038C189.06 181.488 186.06 173.733 184.909 171.5C182.168 167.965 107.069 169.554 102.424 170.28C102.004 170.349 101.603 170.507 101.249 170.743C100.894 170.979 100.594 171.289 100.369 171.651C99.1361 173.459 98.9031 176.775 99.7526 180.516C100.945 185.887 104.795 185.544 104.946 185.53H105.083Z" fill="#231F20"/>
<path d="M191.499 120.94C189.035 121.413 186.484 120.975 184.319 119.707C183.223 118.927 182.324 117.901 181.696 116.712C181.068 115.522 180.727 114.201 180.702 112.856C180.672 110.167 181.487 107.536 183.031 105.334C183.579 104.442 184.285 103.657 185.114 103.018C186.034 102.415 187.075 102.021 188.164 101.862C189.253 101.703 190.363 101.785 191.417 102.1C193.518 102.745 195.464 103.818 197.13 105.252C198.032 105.882 198.781 106.706 199.323 107.663C200.693 110.513 199.967 113.856 198.501 116.514C197.797 117.779 196.788 118.847 195.564 119.62C194.341 120.393 192.943 120.847 191.499 120.94Z" fill="white"/>
<path d="M189.444 121.777C187.511 121.82 185.607 121.302 183.963 120.283C182.784 119.444 181.817 118.343 181.136 117.066C180.456 115.789 180.082 114.372 180.044 112.925C180.008 110.087 180.86 107.308 182.483 104.978C183.078 104.02 183.844 103.179 184.744 102.498C185.742 101.839 186.873 101.405 188.056 101.228C189.239 101.05 190.447 101.133 191.595 101.471C193.798 102.122 195.835 103.239 197.569 104.745C198.549 105.44 199.363 106.343 199.953 107.39C201.323 110.13 200.967 113.514 199.117 116.871C198.358 118.223 197.274 119.365 195.963 120.192C194.652 121.02 193.156 121.508 191.609 121.612C190.892 121.721 190.169 121.776 189.444 121.777ZM189.156 102.512C187.851 102.48 186.57 102.864 185.498 103.608C184.736 104.195 184.086 104.914 183.579 105.732C182.126 107.822 181.356 110.311 181.374 112.857C181.398 114.089 181.71 115.299 182.283 116.391C182.856 117.482 183.675 118.426 184.676 119.146C186.711 120.302 189.089 120.7 191.389 120.269C192.732 120.187 194.033 119.767 195.17 119.048C196.308 118.33 197.246 117.336 197.898 116.159C198.665 114.789 200.282 111.158 198.692 107.938C198.19 107.092 197.512 106.364 196.706 105.8C195.113 104.416 193.245 103.384 191.225 102.772C190.553 102.601 189.863 102.514 189.17 102.512H189.156Z" fill="#231F20"/>
<path d="M249.361 87.3712C249.361 87.3712 234.468 87.152 226.466 92.8519C218.464 98.5518 217.738 101.607 208.475 104.279C199.213 106.951 177.743 106.512 177.743 106.512L177.564 116.104L221.93 118.515C222.897 122.285 223.503 126.139 223.739 130.025C223.814 131.312 224.158 132.569 224.748 133.716C225.338 134.863 226.161 135.874 227.165 136.684L260.309 137.985C260.309 137.985 264.488 118.378 268.886 115.158C274.942 110.691 256.582 86.9328 249.361 87.3712Z" fill="white"/>
<path d="M260.309 138.685L227.137 137.315C226.997 137.306 226.862 137.253 226.753 137.164C225.659 136.295 224.763 135.203 224.125 133.96C223.487 132.717 223.122 131.352 223.054 129.957C222.85 126.294 222.29 122.659 221.382 119.105L177.537 116.735C177.36 116.724 177.194 116.645 177.074 116.515C176.954 116.385 176.889 116.213 176.893 116.036L177.071 106.445C177.081 106.267 177.16 106.1 177.29 105.979C177.352 105.915 177.427 105.865 177.51 105.831C177.592 105.798 177.681 105.783 177.77 105.787C177.989 105.787 199.24 106.184 208.297 103.567C212.732 102.442 216.795 100.174 220.081 96.9905C221.684 95.6203 223.506 94.072 226.082 92.236C234.084 86.5498 248.443 86.6457 249.375 86.6594C255.198 86.3032 266.79 99.4705 269.927 108.308C271.544 112.775 270.462 114.762 269.27 115.638C265.831 118.16 262.09 132.683 260.939 138.068C260.926 138.23 260.855 138.381 260.739 138.494C260.624 138.608 260.471 138.675 260.309 138.685ZM227.425 136.027L259.761 137.301C260.501 133.985 264.31 117.68 268.489 114.625C269.969 113.528 269.407 110.884 268.667 108.856C265.516 100.128 254.403 88.0981 249.567 88.0981H249.348C249.197 88.0981 234.591 87.9337 226.863 93.4418C224.817 94.8986 222.846 96.458 220.958 98.114C217.508 101.425 213.26 103.785 208.626 104.965C200.2 107.404 182.182 107.294 178.387 107.239L178.236 115.46L221.93 117.831C222.076 117.835 222.217 117.887 222.331 117.979C222.444 118.07 222.525 118.196 222.561 118.338C223.554 122.169 224.169 126.088 224.397 130.039C224.478 131.176 224.788 132.286 225.308 133.301C225.828 134.315 226.548 135.215 227.425 135.944V136.027Z" fill="#231F20"/>
<path d="M248.95 118.995C257.683 118.995 264.762 111.915 264.762 103.183C264.762 94.4502 257.683 87.3711 248.95 87.3711C240.218 87.3711 233.138 94.4502 233.138 103.183C233.138 111.915 240.218 118.995 248.95 118.995Z" fill="black"/>
<path d="M257.295 119.145C266.027 119.145 273.106 112.066 273.106 103.333C273.106 94.6006 266.027 87.5215 257.295 87.5215C248.562 87.5215 241.483 94.6006 241.483 103.333C241.483 112.066 248.562 119.145 257.295 119.145Z" fill="black"/>
<path d="M249.276 87.3764L248.675 118.994L257.017 119.153L257.619 87.5351L249.276 87.3764Z" fill="black"/>
<path d="M257.295 116.432C264.529 116.432 270.393 110.567 270.393 103.333C270.393 96.0989 264.529 90.2344 257.295 90.2344C250.06 90.2344 244.196 96.0989 244.196 103.333C244.196 110.567 250.06 116.432 257.295 116.432Z" fill="#8C8896"/>
<path d="M244.127 277.07C243.895 277.144 243.657 277.194 243.415 277.221H138.227C128.636 274.179 125.827 267.63 121.62 255.833L79.9948 255.038C79.9948 255.038 86.0509 221.688 95.7928 204.232C105.535 186.776 107.535 186.256 107.535 186.256C107.535 186.256 186.923 185.338 186.868 188.201C186.813 191.065 178.825 232.663 172.029 245.379C165.233 258.094 167.918 267.548 173.015 268.493C178.113 269.439 192.075 267.931 197.843 264.903C203.611 261.875 206.064 164.977 207.201 151.878C207.914 143.411 212.339 141.383 219.341 138.601C220.471 138.109 221.573 137.556 222.643 136.943C229.124 133.63 236.385 132.142 243.648 132.641C258.856 133.518 269.366 136.546 274.024 146.055C278.683 155.564 289.822 185.708 291.124 192.298C292.426 198.889 293.864 213.454 282.081 232.91C270.297 252.366 246.155 275.974 244.127 277.07Z" fill="white"/>
<path d="M138.227 277.921H138.021C128.225 274.838 125.293 268.11 121.141 256.546L80.0359 255.765C79.9366 255.763 79.8388 255.74 79.749 255.698C79.6592 255.655 79.5795 255.594 79.5152 255.518C79.4528 255.44 79.4082 255.35 79.3846 255.253C79.3609 255.156 79.3587 255.054 79.3782 254.957C79.3782 254.628 85.5577 221.292 95.2448 203.945C104.425 187.503 106.877 185.777 107.426 185.626H107.59C120.428 185.475 184.621 184.886 187.334 187.626C187.421 187.71 187.49 187.81 187.537 187.92C187.584 188.031 187.608 188.15 187.608 188.27C187.539 191.627 179.51 232.979 172.687 245.818C167.973 254.628 168.069 261.479 169.741 265C170.038 265.739 170.506 266.397 171.106 266.921C171.706 267.445 172.421 267.819 173.194 268.014C177.975 268.905 191.842 267.494 197.569 264.479C201.679 262.342 204.42 199.629 205.543 172.842C205.982 162.922 206.324 155.03 206.585 151.988C207.311 143.26 211.832 141.027 219.149 138.136C219.987 137.792 220.801 137.393 221.588 136.944L222.369 136.519C228.965 133.149 236.353 131.634 243.744 132.135C256.664 132.888 269.366 135.081 274.696 145.932C279.313 155.318 290.535 185.667 291.85 192.34C294.385 205.178 291.22 219.387 282.711 233.445C270.626 253.408 246.484 276.77 244.511 277.838C244.217 277.973 243.901 278.052 243.579 278.071L138.227 277.921ZM138.337 276.55H243.415L243.826 276.468C245.895 275.249 269.859 251.805 281.492 232.623C289.822 218.853 292.919 204.987 290.453 192.491C289.082 185.886 277.998 155.743 273.421 146.412C269.311 138.191 260.72 134.368 243.607 133.368C236.467 132.884 229.331 134.348 222.958 137.602L222.191 138.013C221.354 138.489 220.489 138.915 219.601 139.287C212.572 142.027 208.558 144.041 207.886 151.988C207.626 155.058 207.283 162.881 206.845 172.788C204.42 228.526 202.118 263.479 198.158 265.562C192.088 268.754 177.975 270.165 172.892 269.22C171.905 268.997 170.986 268.539 170.214 267.885C169.441 267.232 168.837 266.402 168.453 265.466C166.11 260.574 167.22 252.97 171.426 245.105C178.044 232.774 185.717 192.806 186.169 188.517C182.209 186.791 137.446 186.64 107.686 186.983C107.426 187.202 104.946 189.394 96.382 204.617C87.6403 220.291 81.8034 249.284 80.8169 254.436L121.634 255.203C121.773 255.206 121.907 255.251 122.019 255.331C122.132 255.412 122.217 255.525 122.264 255.655C126.416 267.329 129.156 273.605 138.337 276.55Z" fill="#231F20"/>
<path d="M309.463 272.374C309.882 251.421 300.389 234.238 288.258 233.995C276.128 233.752 265.955 250.542 265.536 271.496C265.117 292.449 274.61 309.632 286.741 309.875C298.871 310.117 309.044 293.328 309.463 272.374Z" fill="black"/>
<path d="M265.834 233.323L264.391 309.203L286.35 309.621L287.794 233.741L265.834 233.323Z" fill="black"/>
<path d="M287.081 271.684C287.479 250.734 277.971 233.564 265.843 233.333C253.714 233.102 243.56 249.898 243.161 270.848C242.762 291.798 252.271 308.968 264.399 309.199C276.527 309.43 286.682 292.634 287.081 271.684Z" fill="black"/>
<path d="M276.094 271.476C276.361 257.419 271.665 245.93 265.605 245.814C259.545 245.699 254.415 257.001 254.148 271.059C253.88 285.116 258.576 296.605 264.637 296.72C270.697 296.836 275.826 285.534 276.094 271.476Z" fill="white"/>
<path d="M270.188 202.109C270.188 202.109 283.958 199.369 291.48 207.96C299.002 216.551 308.429 238.35 306.251 240.446C304.072 242.543 264.954 240.953 254.184 241.817L239.181 255.011C239.181 255.011 237.4 238.281 241.058 226.375C244.716 214.468 246.785 206.165 270.188 202.109Z" fill="white"/>
<path d="M239.236 255.696C239.154 255.71 239.071 255.71 238.989 255.696C238.871 255.653 238.767 255.578 238.689 255.478C238.612 255.379 238.564 255.26 238.551 255.134C238.482 254.449 236.756 238.144 240.4 226.224L240.62 225.511C244.168 213.92 246.73 205.534 270.064 201.492C270.763 201.355 284.342 198.752 291.987 207.562C298.989 215.578 309.566 238.254 306.716 240.994C305.346 242.364 295.974 242.364 276.395 242.364C267.365 242.364 258.815 242.282 254.472 242.597L239.619 255.641C239.499 255.696 239.366 255.715 239.236 255.696ZM275.244 202.383C273.591 202.37 271.94 202.503 270.311 202.78C247.799 206.685 245.47 214.317 241.935 225.854L241.729 226.58C238.742 236.295 239.469 249.434 239.797 253.613L253.801 241.282C253.909 241.179 254.049 241.116 254.198 241.104C258.5 240.761 267.214 240.802 276.436 240.857C288.233 240.857 304.387 240.994 305.798 239.926C307.169 238.24 298.948 217.551 290.987 208.412C286.561 203.369 279.875 202.383 275.244 202.383Z" fill="#231F20"/>
<path d="M268.722 192.284C268.546 192.288 268.376 192.222 268.248 192.102C268.119 191.982 268.044 191.816 268.037 191.64C266.365 160.51 256.075 142.999 255.965 142.821C255.874 142.666 255.848 142.482 255.891 142.307C255.935 142.133 256.045 141.983 256.198 141.889C256.275 141.84 256.361 141.807 256.451 141.792C256.541 141.777 256.633 141.781 256.721 141.803C256.81 141.824 256.893 141.864 256.965 141.919C257.038 141.974 257.099 142.043 257.144 142.122C257.253 142.3 267.708 160.058 269.475 191.558C269.481 191.649 269.468 191.74 269.438 191.826C269.408 191.912 269.361 191.992 269.299 192.059C269.238 192.127 269.164 192.182 269.081 192.22C268.998 192.259 268.909 192.281 268.818 192.284H268.722Z" fill="#D1D3D4"/>
<path d="M274.038 236.597C273.882 236.598 273.73 236.545 273.608 236.448C273.486 236.351 273.401 236.215 273.367 236.063C273.367 235.885 269.434 218.456 261.254 211.674C261.174 211.62 261.106 211.55 261.054 211.469C261.003 211.387 260.969 211.296 260.955 211.2C260.942 211.105 260.948 211.007 260.975 210.914C261.001 210.822 261.047 210.736 261.109 210.662C261.172 210.588 261.249 210.528 261.336 210.486C261.422 210.444 261.517 210.421 261.614 210.418C261.71 210.415 261.806 210.433 261.895 210.47C261.985 210.507 262.065 210.562 262.131 210.632C270.667 217.702 274.545 235.035 274.696 235.775C274.732 235.951 274.698 236.135 274.601 236.286C274.504 236.437 274.351 236.544 274.175 236.583L274.038 236.597Z" fill="#231F20"/>
<path d="M173.002 269.194L143.625 268.646C143.444 268.646 143.269 268.573 143.141 268.445C143.012 268.316 142.94 268.142 142.94 267.96C142.94 267.779 143.012 267.605 143.141 267.476C143.269 267.348 143.444 267.275 143.625 267.275L173.002 267.837C173.183 267.837 173.358 267.909 173.486 268.038C173.615 268.166 173.687 268.341 173.687 268.522C173.687 268.704 173.615 268.878 173.486 269.007C173.358 269.135 173.183 269.207 173.002 269.207V269.194Z" fill="#231F20"/>
<path d="M130.992 251.928C125.265 251.928 120.593 251.668 120.154 251.654C119.975 251.637 119.809 251.553 119.69 251.418C119.57 251.283 119.506 251.108 119.51 250.928C119.516 250.838 119.539 250.75 119.578 250.669C119.617 250.588 119.672 250.515 119.74 250.455C119.807 250.396 119.886 250.35 119.971 250.32C120.056 250.291 120.147 250.279 120.237 250.284C120.483 250.284 144.996 251.654 151.367 248.188C152.394 247.64 152.997 245.831 153.148 242.954C153.765 230.937 146.297 207.014 144.447 205.74C142.296 204.274 124.073 203.137 112.344 202.726C112.164 202.715 111.995 202.635 111.872 202.502C111.749 202.369 111.683 202.194 111.687 202.013C111.704 201.835 111.786 201.669 111.917 201.548C112.049 201.427 112.22 201.358 112.399 201.355C115.427 201.465 142.05 202.465 145.215 204.616C148.065 206.548 155.094 231.581 154.518 242.981C154.34 246.461 153.518 248.544 152.025 249.352C148.174 251.476 138.638 251.928 130.992 251.928Z" fill="#231F20"/>
<path d="M191.074 101.978C191.416 101.603 191.845 101.319 192.323 101.152C192.802 100.985 193.314 100.939 193.815 101.019C194.833 101.206 195.797 101.618 196.637 102.224C197.176 101.605 197.925 101.207 198.74 101.109C199.555 101.01 200.378 101.217 201.049 101.69C201.386 101.373 201.825 101.187 202.287 101.164C202.749 101.142 203.204 101.284 203.57 101.567C204.291 102.149 204.833 102.923 205.132 103.8C206.007 105.823 206.638 107.944 207.009 110.117C207.235 110.933 207.235 111.794 207.009 112.61C206.88 113.01 206.618 113.353 206.266 113.582C205.915 113.811 205.495 113.913 205.077 113.871C204.489 113.664 204 113.244 203.707 112.693C202.939 111.544 202.369 110.275 202.022 108.938C202.488 110.514 202.858 112.487 201.611 113.569C201.059 113.958 200.391 114.146 199.718 114.101C199.044 114.056 198.407 113.781 197.911 113.323C196.941 112.377 196.212 111.212 195.788 109.925C196.021 111.347 195.884 112.805 195.39 114.159C195.366 114.251 195.324 114.338 195.265 114.413C195.206 114.489 195.132 114.551 195.048 114.597C194.867 114.629 194.68 114.59 194.527 114.487C192.74 113.207 191.376 111.423 190.608 109.363C191.072 110.286 191.258 111.324 191.143 112.35C190.924 113.35 189.841 114.241 188.882 113.843C188.348 113.538 187.94 113.052 187.731 112.473C186.962 110.968 186.32 109.4 185.813 107.787C185.292 106.129 184.881 103.677 186.087 102.156C186.755 101.526 187.629 101.16 188.547 101.127C189.465 101.095 190.363 101.397 191.074 101.978Z" fill="white"/>
<path d="M194.924 115.295C194.663 115.288 194.407 115.213 194.185 115.075C193.205 114.496 192.367 113.705 191.732 112.76C191.495 113.448 191.005 114.021 190.362 114.363C190.094 114.511 189.796 114.597 189.49 114.616C189.185 114.635 188.879 114.586 188.594 114.472C187.917 114.126 187.386 113.547 187.101 112.842C186.308 111.303 185.648 109.698 185.128 108.046C184.648 106.484 184.045 103.607 185.525 101.785C185.854 101.39 186.259 101.065 186.715 100.83C187.172 100.595 187.671 100.453 188.183 100.415C189.18 100.319 190.182 100.539 191.047 101.045C191.463 100.724 191.94 100.493 192.449 100.366C192.959 100.238 193.489 100.218 194.006 100.305C194.938 100.457 195.828 100.798 196.623 101.305C197.238 100.801 197.987 100.486 198.777 100.399C199.567 100.311 200.366 100.455 201.077 100.812C201.534 100.548 202.058 100.422 202.585 100.448C203.113 100.475 203.621 100.654 204.05 100.963C204.881 101.619 205.508 102.498 205.858 103.497C206.762 105.566 207.406 107.738 207.777 109.965C208.003 110.9 207.975 111.88 207.694 112.801C207.508 113.36 207.132 113.835 206.631 114.146C206.131 114.456 205.537 114.581 204.954 114.5C204.187 114.274 203.538 113.758 203.145 113.061L202.94 112.76C202.781 113.289 202.477 113.764 202.063 114.13C201.384 114.617 200.559 114.859 199.725 114.814C198.89 114.769 198.096 114.441 197.473 113.883C197.086 113.562 196.744 113.188 196.459 112.773C196.374 113.341 196.227 113.897 196.021 114.431C195.965 114.617 195.87 114.789 195.742 114.936C195.614 115.082 195.457 115.2 195.281 115.281C195.163 115.304 195.043 115.309 194.924 115.295ZM190.608 108.677C190.737 108.675 190.864 108.71 190.973 108.778C191.082 108.846 191.17 108.944 191.225 109.06C191.916 110.963 193.15 112.62 194.774 113.829C195.203 112.612 195.321 111.307 195.116 110.033C195.093 109.867 195.13 109.699 195.22 109.558C195.311 109.417 195.449 109.313 195.61 109.266C195.77 109.217 195.942 109.231 196.092 109.304C196.243 109.378 196.359 109.507 196.418 109.663C196.8 110.845 197.463 111.917 198.35 112.787C198.723 113.139 199.203 113.357 199.714 113.407C200.225 113.456 200.738 113.335 201.172 113.061C201.844 112.458 201.953 111.362 201.501 109.608L201.364 109.101C201.342 109.016 201.336 108.927 201.348 108.839C201.36 108.752 201.389 108.667 201.433 108.591C201.478 108.514 201.537 108.448 201.607 108.394C201.678 108.341 201.758 108.302 201.844 108.279C202.016 108.233 202.2 108.255 202.357 108.342C202.513 108.429 202.629 108.574 202.68 108.745C202.68 108.91 202.776 109.074 202.817 109.252C203.154 110.337 203.647 111.366 204.283 112.308C204.516 112.65 204.872 113.13 205.283 113.212C205.694 113.294 206.256 112.842 206.448 112.362C206.634 111.667 206.634 110.934 206.448 110.239C206.09 108.118 205.478 106.048 204.625 104.073C204.358 103.31 203.884 102.636 203.255 102.127C203.027 101.94 202.742 101.838 202.447 101.838C202.152 101.838 201.866 101.94 201.638 102.127C201.524 102.259 201.364 102.342 201.191 102.359C201.018 102.377 200.845 102.328 200.707 102.223C200.178 101.856 199.534 101.695 198.895 101.771C198.257 101.847 197.668 102.154 197.24 102.634C197.133 102.764 196.982 102.851 196.816 102.879C196.65 102.906 196.479 102.873 196.336 102.785C195.574 102.24 194.705 101.862 193.787 101.675C193.396 101.602 192.992 101.63 192.614 101.754C192.235 101.879 191.894 102.097 191.622 102.388C191.505 102.528 191.337 102.616 191.156 102.634C190.974 102.652 190.792 102.598 190.65 102.484C189.977 101.959 189.128 101.713 188.279 101.798C187.953 101.812 187.633 101.892 187.338 102.034C187.044 102.175 186.781 102.375 186.566 102.621C185.443 103.991 186.087 106.58 186.402 107.622C186.895 109.2 187.527 110.732 188.293 112.198C188.498 112.609 188.745 113.061 189.088 113.198C189.181 113.244 189.285 113.268 189.389 113.268C189.494 113.268 189.597 113.244 189.69 113.198C189.871 113.101 190.03 112.966 190.155 112.803C190.28 112.641 190.369 112.453 190.417 112.253C190.496 111.356 190.326 110.455 189.923 109.65C189.859 109.488 189.86 109.307 189.927 109.146C189.993 108.985 190.12 108.856 190.28 108.786C190.358 108.732 190.447 108.695 190.54 108.677H190.608Z" fill="#231F20"/>
<path d="M283.177 102.909C283.539 102.567 283.973 102.308 284.446 102.152C284.92 101.995 285.422 101.945 285.917 102.005C286.934 102.198 287.897 102.609 288.74 103.211C289.276 102.592 290.023 102.195 290.836 102.096C291.649 101.998 292.469 102.204 293.138 102.676C293.479 102.361 293.919 102.175 294.383 102.153C294.847 102.13 295.303 102.272 295.673 102.553C296.39 103.144 296.931 103.922 297.235 104.8C298.111 106.818 298.742 108.934 299.112 111.103C299.325 111.92 299.325 112.779 299.112 113.596C298.981 113.996 298.719 114.339 298.368 114.57C298.017 114.801 297.599 114.907 297.18 114.871C296.568 114.669 296.054 114.243 295.741 113.679C294.973 112.53 294.404 111.261 294.056 109.924C294.522 111.5 294.878 113.473 293.645 114.556C293.09 114.943 292.42 115.13 291.745 115.085C291.07 115.04 290.43 114.766 289.932 114.309C288.969 113.359 288.246 112.195 287.822 110.911C288.178 111.76 288.11 113.788 287.096 114.213C286.082 114.638 284.355 113.418 283.67 112.596C283.292 111.931 282.962 111.24 282.684 110.527C282.519 111.199 282.684 111.897 282.56 112.61C282.53 112.933 282.441 113.249 282.3 113.542C282.229 113.687 282.128 113.815 282.002 113.916C281.877 114.018 281.731 114.091 281.574 114.131C281.359 114.192 281.131 114.192 280.916 114.131C280.208 113.871 279.625 113.352 279.286 112.678C278.658 111.306 278.264 109.838 278.121 108.335C277.957 106.965 277.82 105.266 276.504 104.361C276.352 104.278 276.221 104.161 276.121 104.019C275.586 102.923 279.108 102.21 279.738 102.142C280.939 101.978 282.159 102.25 283.177 102.909Z" fill="white"/>
<path d="M292.124 115.776C291.173 115.771 290.253 115.437 289.521 114.831C289.108 114.488 288.748 114.086 288.452 113.638C288.268 114.165 287.884 114.598 287.383 114.844C285.876 115.475 284.068 114.145 283.191 113.063C283.137 113.339 283.044 113.607 282.917 113.858C282.799 114.09 282.633 114.295 282.43 114.458C282.227 114.621 281.991 114.739 281.738 114.803C281.395 114.869 281.039 114.841 280.711 114.721C279.84 114.408 279.12 113.776 278.697 112.953C278.031 111.499 277.614 109.942 277.463 108.35V108.172C277.483 107.555 277.371 106.942 277.135 106.372C276.899 105.803 276.544 105.291 276.093 104.869C275.837 104.728 275.624 104.52 275.477 104.267C275.385 104.096 275.338 103.905 275.338 103.712C275.338 103.518 275.385 103.327 275.477 103.157C276.189 101.869 279.587 101.417 279.587 101.417C280.77 101.274 281.967 101.504 283.013 102.074C283.862 101.445 284.927 101.179 285.972 101.334C286.909 101.489 287.805 101.834 288.603 102.348C289.216 101.842 289.964 101.525 290.754 101.435C291.545 101.345 292.344 101.486 293.056 101.841C293.513 101.577 294.037 101.451 294.565 101.478C295.092 101.504 295.601 101.683 296.029 101.992C296.86 102.649 297.487 103.528 297.838 104.527C298.729 106.6 299.372 108.771 299.756 110.994C299.985 111.93 299.952 112.912 299.66 113.83C299.476 114.391 299.1 114.868 298.599 115.179C298.098 115.489 297.503 115.614 296.92 115.529C296.528 115.419 296.162 115.233 295.842 114.982C295.522 114.73 295.255 114.418 295.056 114.063L294.851 113.748C294.686 114.275 294.383 114.748 293.974 115.118C293.449 115.54 292.797 115.771 292.124 115.776ZM287.836 110.295C287.971 110.296 288.103 110.337 288.215 110.412C288.327 110.488 288.414 110.595 288.466 110.72C288.852 111.901 289.509 112.976 290.384 113.858C290.76 114.206 291.241 114.42 291.751 114.467C292.261 114.514 292.773 114.391 293.207 114.118C293.892 113.515 294.001 112.419 293.549 110.652C293.549 110.487 293.453 110.323 293.412 110.158C293.389 110.073 293.384 109.984 293.396 109.896C293.407 109.808 293.437 109.724 293.481 109.648C293.526 109.571 293.585 109.504 293.655 109.451C293.726 109.397 293.806 109.358 293.892 109.336C294.064 109.289 294.248 109.312 294.404 109.399C294.561 109.486 294.676 109.631 294.727 109.802C294.727 109.966 294.823 110.131 294.864 110.295C295.194 111.385 295.683 112.419 296.317 113.364C296.577 113.748 296.92 114.187 297.317 114.269C297.714 114.351 298.304 113.899 298.482 113.419C298.66 112.723 298.66 111.992 298.482 111.295C298.119 109.174 297.503 107.104 296.646 105.13C296.378 104.367 295.904 103.693 295.276 103.184C295.047 102.999 294.761 102.899 294.467 102.899C294.173 102.899 293.888 102.999 293.659 103.184C293.545 103.315 293.385 103.398 293.212 103.416C293.039 103.434 292.865 103.385 292.727 103.28C292.199 102.913 291.555 102.752 290.916 102.828C290.277 102.903 289.688 103.211 289.261 103.691C289.156 103.82 289.007 103.906 288.844 103.934C288.68 103.962 288.511 103.929 288.37 103.842C287.607 103.299 286.739 102.921 285.821 102.732C285.416 102.678 285.004 102.715 284.616 102.841C284.227 102.966 283.871 103.177 283.574 103.458C283.464 103.563 283.322 103.627 283.17 103.642C283.019 103.657 282.867 103.621 282.739 103.54C281.861 102.951 280.801 102.698 279.752 102.828C278.711 102.949 277.702 103.265 276.778 103.76C277.403 104.286 277.902 104.946 278.238 105.69C278.575 106.435 278.741 107.245 278.724 108.062V108.254C278.856 109.676 279.226 111.065 279.82 112.364C279.94 112.621 280.109 112.851 280.318 113.041C280.528 113.232 280.773 113.379 281.04 113.474C281.143 113.498 281.251 113.498 281.355 113.474C281.47 113.422 281.563 113.329 281.615 113.214C281.717 112.993 281.782 112.757 281.807 112.515C281.828 112.241 281.828 111.966 281.807 111.693C281.782 111.234 281.814 110.774 281.903 110.323C281.961 110.186 282.062 110.072 282.19 109.998C282.319 109.924 282.468 109.894 282.615 109.912C282.748 109.89 282.884 109.908 283.006 109.964C283.128 110.02 283.231 110.112 283.3 110.227C283.478 110.536 283.625 110.862 283.739 111.2C283.857 111.565 284.028 111.911 284.246 112.227C284.876 113.008 286.178 113.94 286.876 113.597C287.575 113.255 287.52 111.885 287.233 111.186C287.164 111.019 287.165 110.831 287.234 110.664C287.304 110.498 287.436 110.365 287.603 110.295C287.675 110.257 287.754 110.233 287.836 110.227V110.295Z" fill="#231F20"/>
<path d="M127.266 155.386C125.635 160.045 131.376 168.033 135.363 169.019C143.05 171.253 160.15 172.006 163.52 174.637C166.891 177.268 174.715 248.79 174.715 248.79L197.569 246.68C199.556 233.965 211.695 163.278 192.76 152.687C187.635 149.823 165.617 144.891 165.617 144.891C165.617 144.891 129.869 151.741 127.923 154.18C127.638 154.543 127.416 154.95 127.266 155.386Z" fill="black"/>
<path d="M121.209 218.249L104.672 217.934C104.581 217.934 104.491 217.916 104.408 217.88C104.325 217.845 104.25 217.793 104.187 217.728C104.124 217.662 104.075 217.585 104.043 217.501C104.011 217.416 103.996 217.326 104 217.235C103.998 217.144 104.015 217.054 104.05 216.969C104.084 216.885 104.136 216.809 104.202 216.746C104.268 216.683 104.346 216.634 104.431 216.603C104.517 216.571 104.608 216.558 104.699 216.564L121.237 216.879C121.419 216.879 121.593 216.951 121.721 217.08C121.85 217.208 121.922 217.382 121.922 217.564C121.922 217.746 121.85 217.92 121.721 218.048C121.593 218.177 121.419 218.249 121.237 218.249H121.209Z" fill="#D1D3D4"/>
<path d="M121.018 228.101L104.493 227.745C104.403 227.743 104.315 227.724 104.232 227.688C104.15 227.652 104.075 227.6 104.013 227.535C103.951 227.47 103.902 227.393 103.869 227.31C103.836 227.226 103.82 227.136 103.822 227.046C103.826 226.869 103.897 226.701 104.023 226.576C104.148 226.45 104.316 226.379 104.493 226.375L121.031 226.69C121.213 226.69 121.387 226.762 121.516 226.891C121.644 227.019 121.716 227.194 121.716 227.375C121.716 227.557 121.644 227.731 121.516 227.86C121.387 227.988 121.213 228.06 121.031 228.06L121.018 228.101Z" fill="#D1D3D4"/>
<path d="M196.212 94.6615C196.123 94.6616 196.035 94.6437 195.952 94.6092C195.87 94.5746 195.795 94.5239 195.733 94.4601C195.67 94.3963 195.621 94.3206 195.588 94.2376C195.555 94.1546 195.539 94.0658 195.541 93.9765V60.5855C195.541 60.4038 195.613 60.2295 195.742 60.101C195.87 59.9726 196.044 59.9004 196.226 59.9004C196.408 59.9004 196.582 59.9726 196.711 60.101C196.839 60.2295 196.911 60.4038 196.911 60.5855V94.0176C196.901 94.1944 196.822 94.3603 196.692 94.4804C196.561 94.6005 196.39 94.6654 196.212 94.6615Z" fill="#231F20"/>
<path d="M175.934 102.65C162.849 102.65 145.886 101.279 142.228 94.2916C137.144 84.6182 136.089 61.5446 136.007 60.5855C136.007 60.4038 136.079 60.2295 136.208 60.101C136.336 59.9726 136.511 59.9004 136.692 59.9004C136.874 59.9004 137.048 59.9726 137.177 60.101C137.305 60.2295 137.377 60.4038 137.377 60.5855C137.377 60.8184 138.46 84.3168 143.406 93.7298C146.297 99.2105 160.478 101.951 182.333 101.238H183.059C183.241 101.238 183.415 101.311 183.543 101.439C183.672 101.567 183.744 101.742 183.744 101.923C183.744 102.105 183.672 102.279 183.543 102.408C183.415 102.536 183.241 102.609 183.059 102.609H182.387C180.428 102.595 178.25 102.65 175.934 102.65Z" fill="#231F20"/>
<path d="M142.036 133.08C137.879 133.21 133.742 132.458 129.896 130.874C129.809 130.84 129.729 130.79 129.662 130.725C129.595 130.66 129.542 130.582 129.506 130.495C129.47 130.409 129.452 130.316 129.454 130.222C129.455 130.129 129.476 130.037 129.514 129.951C129.553 129.866 129.608 129.79 129.677 129.727C129.746 129.664 129.827 129.615 129.916 129.585C130.004 129.555 130.098 129.543 130.191 129.55C130.285 129.557 130.375 129.583 130.458 129.627C147.558 137.423 185.731 120.638 186.114 120.474C186.277 120.412 186.458 120.415 186.619 120.482C186.78 120.549 186.91 120.674 186.981 120.833C187.053 120.992 187.061 121.173 187.005 121.338C186.948 121.502 186.83 121.64 186.676 121.721C179.64 124.721 172.418 127.266 165.055 129.339C157.58 131.594 149.84 132.852 142.036 133.08Z" fill="#231F20"/>
<path d="M197.569 247.366L175.002 246.667C174.821 246.667 174.646 246.595 174.518 246.466C174.389 246.338 174.317 246.164 174.317 245.982C174.317 245.8 174.389 245.626 174.518 245.498C174.646 245.369 174.821 245.297 175.002 245.297L197.569 245.996C197.752 246.003 197.925 246.081 198.05 246.215C198.176 246.348 198.244 246.525 198.24 246.708C198.233 246.883 198.16 247.048 198.035 247.17C197.91 247.293 197.744 247.362 197.569 247.366Z" fill="white"/>
<path d="M200.063 176.582C199.885 176.582 199.714 176.511 199.588 176.385C199.462 176.259 199.391 176.088 199.391 175.91C199.391 175.787 199.076 162.524 194.143 154.467C189.211 146.411 172.92 147.247 172.755 147.247C172.573 147.247 172.399 147.174 172.271 147.046C172.142 146.917 172.07 146.743 172.07 146.561C172.07 146.38 172.142 146.205 172.271 146.077C172.399 145.949 172.573 145.876 172.755 145.876C173.454 145.876 190.129 145.191 195.363 153.741C200.597 162.291 200.844 175.321 200.844 175.869C200.847 175.96 200.833 176.05 200.801 176.135C200.769 176.219 200.72 176.297 200.657 176.362C200.594 176.427 200.519 176.479 200.436 176.515C200.352 176.55 200.263 176.568 200.172 176.568L200.063 176.582Z" fill="white"/>
<path d="M151.285 21.1783C153.297 16.0198 157.224 11.8377 162.246 9.50443C170.755 5.39392 182.333 5.73646 183.812 7.7232C185.292 9.70995 187.923 20.548 186.731 20.6987C185.539 20.8494 166.754 18.1776 158.135 24.0282C149.517 29.8788 151.285 21.1783 151.285 21.1783Z" fill="white"/>
<path d="M153.367 26.7269C152.815 26.7368 152.272 26.5843 151.805 26.2884C149.86 24.9183 150.531 21.4243 150.627 21.027C150.622 21.0045 150.622 20.981 150.627 20.9585C152.668 15.6184 156.714 11.2868 161.903 8.88731C170.522 4.77681 182.456 4.90012 184.306 7.31161C185.758 9.25725 188.265 18.9991 187.512 20.7804C187.451 20.9385 187.349 21.0776 187.216 21.1835C187.084 21.2894 186.926 21.3583 186.758 21.3832C186.086 21.3954 185.413 21.3633 184.744 21.2873C179.469 20.89 165.48 19.8349 158.464 24.5894C156.999 25.7646 155.233 26.5051 153.367 26.7269ZM151.997 21.3558C151.833 22.1642 151.627 24.4798 152.614 25.1512C153.107 25.48 154.436 25.6993 157.752 23.4522C165.164 18.4374 179.496 19.5061 184.895 19.9172L186.347 20.0131C186.566 18.2456 184.58 9.90123 183.264 8.13372C181.949 6.3662 170.933 6.10587 162.547 10.1205C157.718 12.3839 153.931 16.4011 151.956 21.3558H151.997Z" fill="#231F20"/>
<path d="M163.164 16.5059C163.027 16.5067 162.893 16.4665 162.779 16.3904C162.665 16.3144 162.577 16.2059 162.525 16.0791C162.474 15.9523 162.461 15.8129 162.49 15.6789C162.518 15.545 162.586 15.4226 162.684 15.3276L168.59 9.55916C168.651 9.49363 168.726 9.4414 168.808 9.40569C168.891 9.36998 168.98 9.35156 169.069 9.35156C169.159 9.35156 169.248 9.36998 169.331 9.40569C169.413 9.4414 169.487 9.49363 169.549 9.55916C169.613 9.62168 169.663 9.69629 169.698 9.77864C169.733 9.86098 169.75 9.94941 169.75 10.0387C169.75 10.128 169.733 10.2165 169.698 10.2988C169.663 10.3812 169.613 10.4558 169.549 10.5183L163.644 16.3004C163.514 16.4249 163.344 16.4979 163.164 16.5059Z" fill="#D1D3D4"/>
<path d="M174.879 17.56C174.79 17.5629 174.702 17.5473 174.619 17.5143C174.537 17.4813 174.462 17.4316 174.399 17.3682C174.336 17.3057 174.285 17.2311 174.25 17.1488C174.216 17.0664 174.198 16.978 174.198 16.8887C174.198 16.7993 174.216 16.7109 174.25 16.6286C174.285 16.5462 174.336 16.4716 174.399 16.4091C176.742 13.9702 180.373 10.1474 180.784 9.62678C180.837 9.54937 180.905 9.48353 180.984 9.43331C181.062 9.38309 181.151 9.34956 181.243 9.33478C181.335 9.32 181.43 9.32428 181.521 9.34737C181.611 9.37045 181.696 9.41185 181.77 9.46901C181.844 9.52616 181.906 9.59788 181.951 9.67972C181.996 9.76156 182.024 9.8518 182.033 9.94489C182.042 10.038 182.032 10.1319 182.004 10.221C181.975 10.31 181.928 10.3922 181.867 10.4626C181.291 11.2162 175.989 16.7242 175.386 17.3134C175.323 17.3875 175.246 17.4477 175.158 17.4901C175.071 17.5326 174.976 17.5564 174.879 17.56Z" fill="#D1D3D4"/>
<path d="M168.672 100.525C168.494 100.525 168.323 100.454 168.197 100.329C168.071 100.203 168.001 100.032 168.001 99.8538L167.192 65.3941C167.189 65.3048 167.203 65.2157 167.234 65.1319C167.265 65.0482 167.313 64.9715 167.374 64.9064C167.435 64.8413 167.509 64.7891 167.591 64.7529C167.672 64.7166 167.761 64.6971 167.85 64.6953C168.031 64.6952 168.204 64.765 168.335 64.8902C168.465 65.0154 168.542 65.1862 168.549 65.3667L169.357 99.8264C169.361 100.006 169.294 100.18 169.171 100.31C169.048 100.441 168.879 100.518 168.699 100.525H168.672Z" fill="#231F20"/>
<path d="M170.083 140.644C169.919 140.645 169.759 140.586 169.635 140.477C169.512 140.368 169.432 140.218 169.412 140.055L168.042 129.244C168.03 129.156 168.036 129.066 168.06 128.98C168.083 128.894 168.124 128.814 168.179 128.744C168.233 128.674 168.302 128.615 168.379 128.572C168.457 128.528 168.543 128.5 168.631 128.49C168.809 128.467 168.989 128.514 169.132 128.621C169.276 128.729 169.371 128.889 169.398 129.066L170.768 139.876C170.792 140.056 170.743 140.238 170.632 140.382C170.522 140.526 170.359 140.62 170.179 140.644H170.083Z" fill="#231F20"/>
<path d="M210.558 74.8748C209.967 74.8748 209.379 74.8059 208.804 74.6692C207.926 74.4384 207.105 74.0251 206.397 73.4561C205.689 72.8872 205.109 72.1754 204.694 71.3671C204.096 70.4629 203.697 69.4417 203.525 68.3715C203.352 67.3013 203.41 66.2065 203.694 65.1603C204.289 63.5993 205.468 62.3314 206.982 61.6252C207.141 61.5822 207.311 61.5982 207.459 61.6701C207.608 61.742 207.725 61.8651 207.79 62.0168C207.855 62.1684 207.863 62.3384 207.813 62.4956C207.763 62.6527 207.657 62.7864 207.516 62.8721C206.355 63.4321 205.449 64.4113 204.981 65.6124C204.767 66.4757 204.736 67.3746 204.892 68.2505C205.048 69.1264 205.386 69.9596 205.886 70.6958C206.214 71.3427 206.676 71.9129 207.24 72.3687C207.804 72.8245 208.459 73.1556 209.16 73.3402C212.586 74.176 216.71 71.5179 216.751 71.4905C216.904 71.3926 217.089 71.3593 217.266 71.3978C217.444 71.4363 217.598 71.5436 217.697 71.696C217.745 71.7697 217.779 71.8523 217.796 71.9391C217.813 72.0259 217.812 72.1151 217.794 72.2017C217.776 72.2882 217.742 72.3704 217.692 72.4435C217.642 72.5166 217.579 72.5792 217.505 72.6277C215.422 73.9639 213.029 74.738 210.558 74.8748Z" fill="#231F20"/>
<path d="M299.208 175.898H242.497C241.188 175.898 240.126 176.96 240.126 178.269V197.643C240.126 198.952 241.188 200.013 242.497 200.013H299.208C300.517 200.013 301.578 198.952 301.578 197.643V178.269C301.578 176.96 300.517 175.898 299.208 175.898Z" fill="white"/>
<path d="M299.194 200.698H242.497C241.686 200.698 240.909 200.376 240.336 199.803C239.763 199.23 239.441 198.453 239.441 197.643V178.282C239.441 177.472 239.763 176.695 240.336 176.121C240.909 175.548 241.686 175.227 242.497 175.227H299.194C300.005 175.227 300.782 175.548 301.355 176.121C301.928 176.695 302.25 177.472 302.25 178.282V197.601C302.255 198.006 302.18 198.408 302.029 198.783C301.878 199.159 301.654 199.5 301.369 199.789C301.085 200.077 300.746 200.305 300.373 200.462C300 200.618 299.599 200.698 299.194 200.698ZM242.497 176.583C242.048 176.587 241.62 176.767 241.304 177.085C240.988 177.404 240.811 177.834 240.811 178.282V197.601C240.811 198.048 240.989 198.477 241.305 198.793C241.621 199.109 242.05 199.287 242.497 199.287H299.194C299.642 199.287 300.073 199.11 300.391 198.794C300.709 198.478 300.89 198.05 300.893 197.601V178.282C300.89 177.833 300.71 177.402 300.392 177.085C300.074 176.767 299.644 176.587 299.194 176.583H242.497Z" fill="#231F20"/>
<path d="M152.107 47.3482C151.825 46.886 151.375 46.5508 150.851 46.4129C150.328 46.275 149.771 46.345 149.298 46.6083C144.857 48.6931 140.611 51.1692 136.61 54.0072C136.168 54.2901 135.847 54.7276 135.711 55.2343C135.574 55.741 135.631 56.2805 135.87 56.7475C136.15 57.216 136.602 57.556 137.13 57.6944C137.658 57.8327 138.219 57.7584 138.693 57.4874C142.687 54.6466 146.929 52.1703 151.367 50.0885C151.819 49.8145 152.148 49.3769 152.286 48.8666C152.424 48.3562 152.359 47.8124 152.107 47.3482Z" fill="#231F20"/>
<path d="M195.705 51.1709L182.894 48.0469C182.367 47.9015 181.804 47.9714 181.329 48.2412C180.854 48.511 180.505 48.9586 180.36 49.4856C180.214 50.0125 180.284 50.5755 180.554 51.0509C180.824 51.5263 181.271 51.875 181.798 52.0204L194.609 55.1032C194.872 55.1844 195.148 55.2121 195.422 55.1845C195.696 55.1569 195.961 55.0747 196.202 54.9427C196.444 54.8107 196.656 54.6317 196.827 54.4161C196.998 54.2006 197.123 53.953 197.197 53.6879C197.27 53.4228 197.29 53.1458 197.254 52.8731C197.218 52.6004 197.128 52.3376 196.989 52.1003C196.85 51.863 196.665 51.6561 196.444 51.4917C196.224 51.3274 195.973 51.2089 195.705 51.1435V51.1709Z" fill="#231F20"/>
<rect x="71" y="106" width="41" height="64" rx="8" fill="black"/>
</svg>
